<svg id="Layer_1" data-name="Layer 1" xmlns="http://www.w3.org/2000/svg" viewBox="0 0 80 80"><defs><style>.cls-1{fill:#f68c3b;}.cls-2{fill:#fff;}.cls-3{isolation:isolate;}</style></defs><path class="cls-1" d="M80,0H0V80H80Z"/><path class="cls-2" d="M5.728,9.631V12.46h.028l1.9-1.976h.028V22.832h2.709V6.7H8.225Z"/><path class="cls-2" d="M11.916,9.631V12.46h.021l1.905-1.976h.028V22.832h2.71V6.7H14.414Z"/><path class="cls-2" d="M13.764,60.906H25.793a.3.3,0,0,0,.3-.3l-.078-.2L26,60.391l-5.983-7.747-.056-.063-.219-.1-.2.085-.035.042-.056.063-5.842,7.662-.092.113-.049.163A.3.3,0,0,0,13.764,60.906Z"/><path class="cls-2" d="M25.758,62H13.7a.3.3,0,0,0-.3.3v9.432a.3.3,0,0,0,.3.3h3.88V66.085a.3.3,0,0,1,.3-.3h3.606a.3.3,0,0,1,.3.3h0v5.941h3.986a.3.3,0,0,0,.3-.3h0V62.29a.3.3,0,0,0-.31-.29Z"/><path class="cls-2" d="M67.427,59.524H55.5a.286.286,0,0,0-.289.281h0V71.857a.286.286,0,0,0,.287.283H67.434a.291.291,0,0,0,.3-.282h0V59.813A.3.3,0,0,0,67.427,59.524ZM60.9,67.391a.286.286,0,0,1-.288.282H57.04a.286.286,0,0,1-.289-.281h0V65.225a.291.291,0,0,1,.289-.289h3.57a.286.286,0,0,1,.29.282v2.173Zm0-4a.286.286,0,0,1-.287.283H57.04a.286.286,0,0,1-.289-.281V61.224a.289.289,0,0,1,.289-.282h3.57a.286.286,0,0,1,.29.28v2.169Zm5.446,4a.289.289,0,0,1-.289.282H62.5a.286.286,0,0,1-.289-.281h0V65.225a.291.291,0,0,1,.289-.289h3.563a.286.286,0,0,1,.289.283v.006Zm0-4a.289.289,0,0,1-.289.283H62.5a.286.286,0,0,1-.289-.281V61.224a.289.289,0,0,1,.289-.282h3.563a.286.286,0,0,1,.289.281h0Z"/><path class="cls-2" d="M39.692,31.554H28.009a.286.286,0,0,0-.282.288h0V71.752a.283.283,0,0,0,.282.282H39.685a.29.29,0,0,0,.29-.282V31.843a.286.286,0,0,0-.281-.289ZM32.743,67.5l-.155.155H29.914l-.156-.155V64.519l.156-.155h2.674l.155.155Zm0-6.844-.155.155H29.914l-.156-.155V57.675l.156-.155h2.674l.155.155Zm0-6.845-.155.156H29.914l-.156-.156v-2.98l.156-.155h2.674l.155.155Zm0-6.844-.155.155H29.914l-.156-.155v-2.98l.156-.156h2.674l.155.156Zm0-6.844-.155.155H29.914l-.156-.155V37.142l.156-.155h2.674l.155.155ZM37.985,67.5l-.155.155H35.156L35,67.5V64.519l.155-.155H37.83l.155.155Zm0-6.844-.155.155H35.156L35,60.653V57.675l.155-.155H37.83l.155.155Zm0-6.845-.155.156H35.156L35,53.808V50.831l.155-.155H37.83l.155.155Zm0-6.844-.155.155H35.156L35,46.964V43.987l.155-.156H37.83l.155.156Zm0-6.844-.155.155H35.156L35,40.12V37.142l.155-.155H37.83l.155.155Z"/><path class="cls-2" d="M67.709,58.317a.239.239,0,0,1-.236.24H55.454a.239.239,0,0,1-.24-.236v-2.4a.239.239,0,0,1,.236-.24H67.462a.239.239,0,0,1,.24.236v2.4Z"/><path class="cls-2" d="M53.8,39.09a.322.322,0,0,0-.3-.226l-.169.057-.021.014-.1.127L41.739,53.625l-.049.07-.1.226V71.815a.286.286,0,0,0,.288.282H53.549a.286.286,0,0,0,.29-.28v-32.6ZM48.964,47l.084-.106c.783-1.009,2.11-2.639,2.752-3.429l.084-.1a.347.347,0,0,1,.255-.12.319.319,0,0,1,.317.268V47.2a.339.339,0,0,1-.317.332H49.218A.328.328,0,0,1,48.9,47.2ZM47.143,67.391a.283.283,0,0,1-.282.282H43.383a.289.289,0,0,1-.289-.282v-2.18a.286.286,0,0,1,.288-.282h3.479a.279.279,0,0,1,.282.276v2.186Zm0-4.022a.283.283,0,0,1-.282.282H43.383a.289.289,0,0,1-.289-.282v-2.18a.28.28,0,0,1,.278-.282h3.489a.279.279,0,0,1,.282.276v2.186Zm0-4.029a.284.284,0,0,1-.282.283H43.383a.29.29,0,0,1-.289-.283V57.16a.286.286,0,0,1,.288-.282h3.479a.279.279,0,0,1,.282.276V59.34Zm.015-8.82v4.8a.292.292,0,0,1-.29.29H43.39a.286.286,0,0,1-.289-.283V54.72l.021-.106.014-.036.028-.035.035-.049c.445-.635,2.456-3.112,3.3-4.142l.085-.1a.324.324,0,0,1,.456-.048.32.32,0,0,1,.115.2v.12ZM52.47,67.391a.286.286,0,0,1-.288.282H48.7a.286.286,0,0,1-.29-.28V65.211a.286.286,0,0,1,.288-.282h3.48a.289.289,0,0,1,.289.282Zm0-4.022a.286.286,0,0,1-.288.282H48.7a.286.286,0,0,1-.29-.28V61.189a.28.28,0,0,1,.278-.282h3.49a.289.289,0,0,1,.289.282Zm0-4.029a.286.286,0,0,1-.287.283H48.7a.286.286,0,0,1-.29-.282h0V57.16a.286.286,0,0,1,.288-.282h3.48a.289.289,0,0,1,.289.282Zm0-4.022a.286.286,0,0,1-.287.283H48.7a.286.286,0,0,1-.29-.28V53.138a.286.286,0,0,1,.288-.282h3.48a.289.289,0,0,1,.289.282Zm0-4.028a.286.286,0,0,1-.288.282H48.7a.286.286,0,0,1-.29-.28V49.109a.286.286,0,0,1,.283-.289h3.485a.291.291,0,0,1,.289.289Z"/><g class="cls-3"><g class="cls-3"><path class="cls-2" d="M21.779,13.512V8.322h.949V10.6l1.025-2.281h.9l-.993,2.319,1.1,2.871h-.942l-.872-2.364-.217.4v1.967Z"/></g><g class="cls-3"><path class="cls-2" d="M24.938,13.512V8.322h2.179v.666H25.886v1.493h.968v.66h-.968v1.718h1.243v.653Z"/><path class="cls-2" d="M28.8,13.583a1.527,1.527,0,0,1-.781-.183,1.143,1.143,0,0,1-.474-.535A2.3,2.3,0,0,1,27.36,12l.814-.161a2.455,2.455,0,0,0,.074.533.767.767,0,0,0,.185.355.448.448,0,0,0,.33.125.37.37,0,0,0,.327-.138.594.594,0,0,0,.1-.349.94.94,0,0,0-.154-.557,2.376,2.376,0,0,0-.41-.436l-.653-.577a1.951,1.951,0,0,1-.439-.529,1.453,1.453,0,0,1-.164-.721,1.232,1.232,0,0,1,.359-.948,1.385,1.385,0,0,1,.981-.333,1.448,1.448,0,0,1,.608.112.961.961,0,0,1,.388.311,1.409,1.409,0,0,1,.215.452,2.6,2.6,0,0,1,.089.534l-.807.142a2.914,2.914,0,0,0-.054-.436.6.6,0,0,0-.148-.3.411.411,0,0,0-.31-.109.393.393,0,0,0-.324.138.525.525,0,0,0-.113.343.791.791,0,0,0,.109.432,1.688,1.688,0,0,0,.314.349l.648.57a2.727,2.727,0,0,1,.548.632,1.613,1.613,0,0,1,.227.874,1.313,1.313,0,0,1-.163.66,1.17,1.17,0,0,1-.455.452A1.375,1.375,0,0,1,28.8,13.583Z"/><path class="cls-2" d="M30.98,13.512V9.02h-.826v-.7h2.589v.7h-.814v4.492Z"/></g><g class="cls-3"><path class="cls-2" d="M33.025,13.512V8.322h.949v4.537h1.255v.653Z"/></g><g class="cls-3"><path class="cls-2" d="M35.53,13.512V8.322h.936v5.19Z"/></g><g class="cls-3"><path class="cls-2" d="M37.075,13.512V8.322h.948V10.6l1.026-2.281h.9l-.993,2.319,1.1,2.871h-.942l-.872-2.364-.218.4v1.967Z"/></g><g class="cls-3"><path class="cls-2" d="M41.7,13.583a1.624,1.624,0,0,1-.9-.211,1.084,1.084,0,0,1-.443-.6,3.175,3.175,0,0,1-.121-.936V8.322h.922v3.62a3.17,3.17,0,0,0,.032.459.655.655,0,0,0,.151.346.559.559,0,0,0,.717,0,.694.694,0,0,0,.148-.346,2.9,2.9,0,0,0,.035-.459V8.322h.916v3.511a3.175,3.175,0,0,1-.121.936,1.091,1.091,0,0,1-.439.6A1.626,1.626,0,0,1,41.7,13.583Z"/><path class="cls-2" d="M43.714,13.512V8.322h1.224a2.3,2.3,0,0,1,.99.173,1.015,1.015,0,0,1,.506.532,2.373,2.373,0,0,1,.15.91v1.9a2.545,2.545,0,0,1-.15.939,1.053,1.053,0,0,1-.5.558,2.086,2.086,0,0,1-.958.182Zm.948-.66h.288a.744.744,0,0,0,.468-.115.514.514,0,0,0,.173-.336,3.927,3.927,0,0,0,.032-.542V9.873a2.3,2.3,0,0,0-.045-.506.437.437,0,0,0-.185-.283.893.893,0,0,0-.455-.089h-.276Z"/></g><g class="cls-3"><path class="cls-2" d="M48.455,13.512V8.322H49.4v4.537h1.256v.653Z"/></g><g class="cls-3"><path class="cls-2" d="M50.961,13.512V8.322H51.9v5.19Z"/><path class="cls-2" d="M52.505,13.512V8.322h.66l1.263,2.96V8.322h.781v5.19h-.628l-1.269-3.1v3.1Z"/><path class="cls-2" d="M55.806,13.512V8.322h.659l1.263,2.96V8.322h.782v5.19h-.628l-1.27-3.1v3.1Z"/></g><g class="cls-3"><path class="cls-2" d="M58.842,13.512l1.038-5.19h1.013l1.038,5.19h-.878l-.2-1.2h-.9l-.211,1.2Zm1.2-1.8h.7l-.352-2.178Z"/></g><g class="cls-3"><path class="cls-2" d="M62.232,13.512V8.322h1.224a2.3,2.3,0,0,1,.99.173,1.007,1.007,0,0,1,.506.532,2.353,2.353,0,0,1,.151.91v1.9a2.523,2.523,0,0,1-.151.939,1.045,1.045,0,0,1-.5.558,2.083,2.083,0,0,1-.958.182Zm.949-.66h.288a.744.744,0,0,0,.468-.115.514.514,0,0,0,.172-.336,3.759,3.759,0,0,0,.033-.542V9.873a2.3,2.3,0,0,0-.045-.506.438.438,0,0,0-.186-.283.89.89,0,0,0-.455-.089h-.275Z"/><path class="cls-2" d="M66.646,13.64v-.666a1.98,1.98,0,0,0,.34-.025.419.419,0,0,0,.208-.094.381.381,0,0,0,.107-.2,1.482,1.482,0,0,0,.031-.336v-4h.942v4.037a2.174,2.174,0,0,1-.1.721.747.747,0,0,1-.356.422,1.513,1.513,0,0,1-.714.138Z"/></g><g class="cls-3"><path class="cls-2" d="M68.607,13.512l1.039-5.19h1.012l1.039,5.19h-.879l-.2-1.2h-.9l-.212,1.2Zm1.2-1.8h.7l-.354-2.178Z"/></g><g class="cls-3"><path class="cls-2" d="M21.779,21.2v-5.19h.949v2.281l1.025-2.281h.9l-.993,2.319,1.1,2.871h-.942l-.872-2.364-.217.4V21.2Z"/></g><g class="cls-3"><path class="cls-2" d="M26.329,21.271a1.632,1.632,0,0,1-.878-.205,1.132,1.132,0,0,1-.468-.588,2.654,2.654,0,0,1-.141-.911V17.626a2.554,2.554,0,0,1,.141-.9,1.109,1.109,0,0,1,.468-.575,2.066,2.066,0,0,1,1.765,0,1.129,1.129,0,0,1,.468.575,2.505,2.505,0,0,1,.144.9v1.947a2.546,2.546,0,0,1-.144.9,1.162,1.162,0,0,1-.468.589A1.626,1.626,0,0,1,26.329,21.271Zm0-.7a.509.509,0,0,0,.349-.1.517.517,0,0,0,.15-.283,1.834,1.834,0,0,0,.039-.39V17.407a1.782,1.782,0,0,0-.039-.39.5.5,0,0,0-.15-.273.525.525,0,0,0-.349-.1.515.515,0,0,0-.34.1.49.49,0,0,0-.154.273,1.845,1.845,0,0,0-.039.39V19.8a1.982,1.982,0,0,0,.036.39.493.493,0,0,0,.15.283A.513.513,0,0,0,26.329,20.573Z"/><path class="cls-2" d="M29.635,21.271a1.364,1.364,0,0,1-.814-.217,1.2,1.2,0,0,1-.432-.618,3.03,3.03,0,0,1-.132-.946V17.747a3.18,3.18,0,0,1,.129-.961,1.121,1.121,0,0,1,.451-.618,1.6,1.6,0,0,1,.894-.215,1.7,1.7,0,0,1,.846.18,1.025,1.025,0,0,1,.452.515,2.157,2.157,0,0,1,.138.817v.269h-.9v-.3a2.288,2.288,0,0,0-.035-.428.477.477,0,0,0-.141-.273.516.516,0,0,0-.343-.092.473.473,0,0,0-.362.121.58.58,0,0,0-.141.32,3.086,3.086,0,0,0-.029.436V19.7a2.14,2.14,0,0,0,.045.468.55.55,0,0,0,.167.3.513.513,0,0,0,.346.105.493.493,0,0,0,.352-.115.628.628,0,0,0,.17-.32,2.165,2.165,0,0,0,.048-.488v-.487h-.558v-.6h1.41V21.2h-.609l-.07-.513a.986.986,0,0,1-.311.42A.893.893,0,0,1,29.635,21.271Z"/><path class="cls-2" d="M33.146,21.271a1.624,1.624,0,0,1-.9-.21,1.084,1.084,0,0,1-.443-.6,3.175,3.175,0,0,1-.121-.936V16.011h.922v3.62a3.17,3.17,0,0,0,.032.459.655.655,0,0,0,.151.346.559.559,0,0,0,.717,0,.7.7,0,0,0,.148-.346,2.9,2.9,0,0,0,.035-.459v-3.62h.916v3.511a3.175,3.175,0,0,1-.121.936,1.091,1.091,0,0,1-.439.6A1.629,1.629,0,0,1,33.146,21.271Z"/></g><g class="cls-3"><path class="cls-2" d="M35.159,21.2v-5.19h.948v2.281l1.026-2.281h.9l-.993,2.319,1.1,2.871H37.2l-.872-2.364-.218.4V21.2Z"/></g><g class="cls-3"><path class="cls-2" d="M39.709,21.271a1.635,1.635,0,0,1-.878-.205,1.132,1.132,0,0,1-.468-.588,2.654,2.654,0,0,1-.141-.911V17.626a2.554,2.554,0,0,1,.141-.9,1.109,1.109,0,0,1,.468-.575,2.066,2.066,0,0,1,1.765,0,1.122,1.122,0,0,1,.467.575,2.483,2.483,0,0,1,.145.9v1.947a2.522,2.522,0,0,1-.145.9,1.155,1.155,0,0,1-.467.589A1.626,1.626,0,0,1,39.709,21.271Zm0-.7a.44.44,0,0,0,.5-.385,1.834,1.834,0,0,0,.039-.39V17.407a1.782,1.782,0,0,0-.039-.39.491.491,0,0,0-.15-.273.523.523,0,0,0-.349-.1.515.515,0,0,0-.34.1.49.49,0,0,0-.154.273,1.849,1.849,0,0,0-.038.39V19.8a1.985,1.985,0,0,0,.035.39.494.494,0,0,0,.151.283A.509.509,0,0,0,39.709,20.573Z"/><path class="cls-2" d="M41.715,21.2v-5.19h.659l1.263,2.96v-2.96h.782V21.2h-.628l-1.27-3.1v3.1Z"/><path class="cls-2" d="M45.015,21.2v-5.19h.659l1.263,2.96v-2.96h.782V21.2h-.628l-1.27-3.1v3.1Z"/></g><g class="cls-3"><path class="cls-2" d="M48.051,21.2l1.038-5.19H50.1L51.14,21.2h-.878l-.2-1.2h-.9l-.211,1.2Zm1.2-1.8h.7L49.6,17.222Z"/></g><g class="cls-3"><path class="cls-2" d="M51.441,21.2v-5.19h1.224a2.3,2.3,0,0,1,.99.173,1.007,1.007,0,0,1,.506.532,2.353,2.353,0,0,1,.151.91v1.9a2.523,2.523,0,0,1-.151.939,1.049,1.049,0,0,1-.5.558,2.083,2.083,0,0,1-.958.182Zm.949-.66h.288a.744.744,0,0,0,.468-.115.514.514,0,0,0,.172-.336,3.759,3.759,0,0,0,.033-.542V17.562a2.3,2.3,0,0,0-.045-.506.438.438,0,0,0-.186-.283.89.89,0,0,0-.455-.089H52.39Z"/></g></g></svg>