<svg id="Layer_1" data-name="Layer 1" xmlns="http://www.w3.org/2000/svg" viewBox="0 0 80 80"><defs><style>.cls-1{fill:#b3782f;}.cls-2{fill:#fff;}.cls-3{isolation:isolate;}</style></defs><path class="cls-1" d="M80,0H0V80H80Z"/><path class="cls-2" d="M7.986,10.513h.021V22.861h2.716V6.731H8.557L6.06,9.659v2.829h.021Z"/><path class="cls-2" d="M12.34,10.061v1.948h2.476V9.984c0-.974.48-1.256,1.044-1.256.522,0,.974.212.974,1.214v1.333a3.206,3.206,0,0,1-1,2.787L14.31,15.678c-1.475,1.573-2.025,2.618-2.025,4.212v2.971h7.048V20.645H14.887v-.762a3.078,3.078,0,0,1,1.143-2.476l1.735-1.835A5.071,5.071,0,0,0,19.48,11.5V9.927c0-2.307-1.115-3.4-3.542-3.4C13.553,6.541,12.34,7.8,12.34,10.061Z"/><path class="cls-2" d="M61.91,42.858a14.457,14.457,0,0,0-8.71-2.851,9.316,9.316,0,0,0-2.1.205l-.219.049c-2.06.48-5.517,1.3-9.546,6.294l-.12.148a.563.563,0,0,0-.1.3l.071.261.092.148c.663,1.108,1.213,2.074,1.658,2.9a.534.534,0,0,0,.719.227.547.547,0,0,0,.141-.107l.078-.106c3.478-4.812,6.2-5.447,8.008-5.878l.225-.056a5.491,5.491,0,0,1,1.108-.092,10.235,10.235,0,0,1,6.025,1.934c2.025,1.594,3.048,4.149,3.048,7.578,0,5.75-2.787,7.994-5.115,8.869a8.164,8.164,0,0,1-2.857.5,10.169,10.169,0,0,1-4.283-.974l-.169-.077c-2.011-.875-5.009-2.689-7.846-8.383C36.208,42.075,31.326,40.974,28.094,40.24l-.169-.035a9.5,9.5,0,0,0-2.081-.191,13.9,13.9,0,0,0-8.566,2.83c-2.109,1.679-4.621,4.946-4.621,10.957A12.69,12.69,0,0,0,24.541,67.249q.5.031,1.006.022a15.771,15.771,0,0,0,2.956-.289,12.618,12.618,0,0,0,5.038-2.3l1.7,1.531a.511.511,0,0,0,.692-.028.439.439,0,0,0,.12-.325l1.312-8.1v-.092a.48.48,0,0,0-.482-.48h-.012l-7.888,2.181-.148.021a.441.441,0,0,0-.254.148.482.482,0,0,0-.127.36.465.465,0,0,0,.162.338l1.637,1.482A7.73,7.73,0,0,1,27.7,62.756a11.465,11.465,0,0,1-2.1.2A8.562,8.562,0,0,1,18.841,59.9l-.043-.064a8.667,8.667,0,0,1-1.82-6.025c0-3.444,1.009-6,3-7.586a9.926,9.926,0,0,1,5.877-1.9,5.7,5.7,0,0,1,1.114.092l.177.042c2.582.586,6.117,1.383,11.013,11.226C40.751,60.879,44,64.28,48.075,66.072a14.646,14.646,0,0,0,6.251,1.446,12.406,12.406,0,0,0,4.36-.776c2.385-.889,7.923-3.93,7.923-12.912C66.6,47.818,64.048,44.551,61.91,42.858Z"/><g class="cls-3"><g class="cls-3"><path class="cls-2" d="M24.728,13.463l-.983-4.885h.789l.646,3.456.6-3.456h.808l-.983,4.885Z"/></g><g class="cls-3"><path class="cls-2" d="M26.482,13.463l.977-4.885h.953l.977,4.885h-.826l-.193-1.128h-.85l-.2,1.128Zm1.128-1.694h.663l-.331-2.051Z"/></g><g class="cls-3"><path class="cls-2" d="M30.9,13.529a1.435,1.435,0,0,1-.735-.172,1.078,1.078,0,0,1-.447-.5,2.172,2.172,0,0,1-.169-.814l.766-.151a2.318,2.318,0,0,0,.07.5.725.725,0,0,0,.175.335.419.419,0,0,0,.31.117.349.349,0,0,0,.308-.13.56.56,0,0,0,.09-.328.887.887,0,0,0-.145-.525,2.267,2.267,0,0,0-.386-.41l-.614-.543a1.826,1.826,0,0,1-.414-.5,1.378,1.378,0,0,1-.153-.679,1.158,1.158,0,0,1,.337-.892,1.3,1.3,0,0,1,.923-.314,1.376,1.376,0,0,1,.573.106.912.912,0,0,1,.364.292,1.322,1.322,0,0,1,.2.426,2.577,2.577,0,0,1,.084.5l-.76.132a2.621,2.621,0,0,0-.051-.41.572.572,0,0,0-.139-.283.39.39,0,0,0-.292-.1.368.368,0,0,0-.3.129.5.5,0,0,0-.105.323.744.744,0,0,0,.1.407,1.633,1.633,0,0,0,.3.329l.608.536a2.492,2.492,0,0,1,.516.594,1.514,1.514,0,0,1,.214.823,1.24,1.24,0,0,1-.153.621,1.109,1.109,0,0,1-.429.425A1.287,1.287,0,0,1,30.9,13.529Z"/><path class="cls-2" d="M32.958,13.463V9.236h-.777V8.578h2.436v.658h-.766v4.227Z"/><path class="cls-2" d="M36.221,13.529a1.526,1.526,0,0,1-.845-.2,1.02,1.02,0,0,1-.416-.566,3,3,0,0,1-.114-.881v-3.3h.868v3.407a2.94,2.94,0,0,0,.03.432.6.6,0,0,0,.142.325.523.523,0,0,0,.676,0,.65.65,0,0,0,.138-.325,2.678,2.678,0,0,0,.033-.432V8.578H37.6v3.305a2.994,2.994,0,0,1-.115.881,1.025,1.025,0,0,1-.413.566A1.52,1.52,0,0,1,36.221,13.529Z"/><path class="cls-2" d="M38.6,13.463V9.236h-.778V8.578h2.436v.658h-.766v4.227Z"/><path class="cls-2" d="M41.864,13.529a1.519,1.519,0,0,1-.843-.2,1.017,1.017,0,0,1-.417-.566,3,3,0,0,1-.114-.881v-3.3h.868v3.407a2.94,2.94,0,0,0,.03.432.6.6,0,0,0,.141.325.429.429,0,0,0,.335.124.423.423,0,0,0,.341-.124.66.66,0,0,0,.139-.325,2.678,2.678,0,0,0,.033-.432V8.578h.862v3.305a3,3,0,0,1-.114.881,1.025,1.025,0,0,1-.413.566A1.521,1.521,0,0,1,41.864,13.529Z"/><path class="cls-2" d="M44.988,13.529a1.439,1.439,0,0,1-.736-.172,1.076,1.076,0,0,1-.446-.5,2.153,2.153,0,0,1-.169-.814l.766-.151a2.318,2.318,0,0,0,.07.5.724.724,0,0,0,.174.335.422.422,0,0,0,.311.117.349.349,0,0,0,.308-.13.567.567,0,0,0,.089-.328.887.887,0,0,0-.144-.525,2.34,2.34,0,0,0-.386-.41l-.615-.543a1.822,1.822,0,0,1-.413-.5,1.367,1.367,0,0,1-.153-.679,1.161,1.161,0,0,1,.336-.892,1.307,1.307,0,0,1,.923-.314,1.381,1.381,0,0,1,.574.106.912.912,0,0,1,.364.292,1.3,1.3,0,0,1,.2.426,2.577,2.577,0,0,1,.085.5l-.76.132a2.614,2.614,0,0,0-.052-.41.571.571,0,0,0-.138-.283.392.392,0,0,0-.292-.1.368.368,0,0,0-.3.129.5.5,0,0,0-.105.323.744.744,0,0,0,.1.407,1.6,1.6,0,0,0,.295.329l.609.536a2.514,2.514,0,0,1,.516.594,1.514,1.514,0,0,1,.214.823,1.24,1.24,0,0,1-.153.621,1.116,1.116,0,0,1-.429.425A1.287,1.287,0,0,1,44.988,13.529Z"/><path class="cls-2" d="M47.044,13.463V9.236h-.777V8.578H48.7v.658h-.765v4.227Z"/><path class="cls-2" d="M50.306,13.529a1.52,1.52,0,0,1-.844-.2,1.016,1.016,0,0,1-.416-.566,2.961,2.961,0,0,1-.115-.881v-3.3H49.8v3.407a3.09,3.09,0,0,0,.029.432.6.6,0,0,0,.142.325.428.428,0,0,0,.335.124.421.421,0,0,0,.34-.124.642.642,0,0,0,.139-.325,2.569,2.569,0,0,0,.033-.432V8.578h.863v3.305a2.961,2.961,0,0,1-.115.881,1.02,1.02,0,0,1-.413.566A1.518,1.518,0,0,1,50.306,13.529Z"/><path class="cls-2" d="M52.2,13.463V8.578h.621l1.189,2.786V8.578h.735v4.885h-.591l-1.194-2.919v2.919Z"/><path class="cls-2" d="M55.305,13.463V8.578h1.152a2.186,2.186,0,0,1,.932.163.954.954,0,0,1,.476.5,2.239,2.239,0,0,1,.142.857v1.784a2.4,2.4,0,0,1-.142.884.987.987,0,0,1-.47.524,1.974,1.974,0,0,1-.9.172Zm.892-.621h.272a.7.7,0,0,0,.44-.109.478.478,0,0,0,.163-.316,3.661,3.661,0,0,0,.03-.51V10.038a2.173,2.173,0,0,0-.042-.476.409.409,0,0,0-.175-.266.83.83,0,0,0-.428-.084H56.2Z"/></g><g class="cls-3"><path class="cls-2" d="M58.482,13.463V8.578h.893v4.27h1.183v.615Z"/></g><g class="cls-3"><path class="cls-2" d="M60.841,13.463V8.578h.881v4.885Z"/></g><g class="cls-3"><path class="cls-2" d="M62.293,13.463V8.578h.893v2.148l.964-2.148H65l-.935,2.184,1.032,2.7H64.21l-.819-2.225-.2.373v1.852Z"/></g><g class="cls-3"><path class="cls-2" d="M24.468,20.7V16.473H23.69v-.659h2.436v.659H25.36V20.7Z"/></g><g class="cls-3"><path class="cls-2" d="M26.024,20.7,27,15.814h.953l.977,4.885h-.826l-.193-1.128h-.85l-.2,1.128Zm1.128-1.694h.663l-.331-2.051Z"/></g><g class="cls-3"><path class="cls-2" d="M29.214,20.7V15.814h1.17a2.562,2.562,0,0,1,.835.119.96.96,0,0,1,.519.4,1.442,1.442,0,0,1,.178.771,2.374,2.374,0,0,1-.055.531,1,1,0,0,1-.184.4.827.827,0,0,1-.359.256L32,20.7h-.893l-.59-2.237h-.411V20.7Zm.892-2.8h.278a.953.953,0,0,0,.413-.075.445.445,0,0,0,.22-.241,1.165,1.165,0,0,0,.066-.426.932.932,0,0,0-.135-.552.609.609,0,0,0-.516-.183h-.326Z"/></g><g class="cls-3"><path class="cls-2" d="M32.4,20.7V15.814h1.2a2.643,2.643,0,0,1,.588.061,1.176,1.176,0,0,1,.452.2.921.921,0,0,1,.293.383,1.574,1.574,0,0,1,.1.609,1.405,1.405,0,0,1-.081.506.767.767,0,0,1-.238.335.868.868,0,0,1-.392.166,1.014,1.014,0,0,1,.479.2.926.926,0,0,1,.283.4,1.677,1.677,0,0,1,.094.6,1.976,1.976,0,0,1-.088.619,1.137,1.137,0,0,1-.259.446,1.072,1.072,0,0,1-.428.267,1.786,1.786,0,0,1-.6.091Zm.892-2.888h.3a.862.862,0,0,0,.41-.079.419.419,0,0,0,.2-.241,1.254,1.254,0,0,0,.057-.41.761.761,0,0,0-.087-.4.439.439,0,0,0-.263-.194,1.623,1.623,0,0,0-.446-.051H33.3Zm0,2.261h.338a.646.646,0,0,0,.549-.2,1.025,1.025,0,0,0,.145-.605,1.384,1.384,0,0,0-.07-.48.5.5,0,0,0-.229-.274.854.854,0,0,0-.425-.091H33.3Z"/><path class="cls-2" d="M35.606,20.7V15.814h.88V20.7Z"/></g><g class="cls-3"><path class="cls-2" d="M37.047,20.7l.084-4.885h.923l.693,3.383.724-3.383h.892l.091,4.885h-.663l-.073-3.394L39.024,20.7h-.536l-.706-3.407L37.716,20.7Z"/></g><g class="cls-3"><path class="cls-2" d="M40.984,20.7V15.814h.88V20.7Z"/><path class="cls-2" d="M42.438,20.7V15.814h.621L44.246,18.6V15.814h.736V20.7h-.59L43.2,17.78V20.7Z"/><path class="cls-2" d="M45.542,20.7V15.814h2.051v.628H46.435v1.405h.911v.621h-.911v1.616H47.6V20.7Z"/><path class="cls-2" d="M48.919,20.819v-.627a1.781,1.781,0,0,0,.32-.023.405.405,0,0,0,.2-.088.353.353,0,0,0,.1-.186,1.335,1.335,0,0,0,.03-.317V15.814h.887v3.8a2.007,2.007,0,0,1-.1.678.7.7,0,0,1-.334.4,1.432,1.432,0,0,1-.672.129Z"/></g><g class="cls-3"><path class="cls-2" d="M50.765,20.7l.976-4.885h.953l.977,4.885h-.826l-.194-1.128H51.8L51.6,20.7Zm1.127-1.694h.664l-.332-2.051Z"/></g><g class="cls-3"><path class="cls-2" d="M55.728,20.7V16.473h-.779v-.659h2.437v.659h-.767V20.7Z"/></g><g class="cls-3"><path class="cls-2" d="M58.952,20.766a1.537,1.537,0,0,1-.826-.194,1.054,1.054,0,0,1-.439-.554,2.481,2.481,0,0,1-.133-.857V17.335a2.4,2.4,0,0,1,.133-.848,1.033,1.033,0,0,1,.439-.54,1.949,1.949,0,0,1,1.662,0,1.064,1.064,0,0,1,.44.54,2.379,2.379,0,0,1,.135.848v1.833a2.408,2.408,0,0,1-.135.847,1.1,1.1,0,0,1-.44.554A1.529,1.529,0,0,1,58.952,20.766Zm0-.658a.475.475,0,0,0,.329-.1.49.49,0,0,0,.142-.266,1.75,1.75,0,0,0,.036-.367V17.13a1.706,1.706,0,0,0-.036-.368.467.467,0,0,0-.142-.257.486.486,0,0,0-.329-.093.478.478,0,0,0-.319.093.464.464,0,0,0-.145.257,1.706,1.706,0,0,0-.036.368v2.249a1.9,1.9,0,0,0,.033.367.466.466,0,0,0,.142.266A.478.478,0,0,0,58.952,20.108Z"/></g><g class="cls-3"><path class="cls-2" d="M62.166,20.766a1.537,1.537,0,0,1-.826-.194,1.061,1.061,0,0,1-.44-.554,2.506,2.506,0,0,1-.132-.857V17.335a2.428,2.428,0,0,1,.132-.848,1.04,1.04,0,0,1,.44-.54,1.949,1.949,0,0,1,1.662,0,1.057,1.057,0,0,1,.439.54,2.356,2.356,0,0,1,.136.848v1.833a2.385,2.385,0,0,1-.136.847,1.1,1.1,0,0,1-.439.554A1.529,1.529,0,0,1,62.166,20.766Zm0-.658a.477.477,0,0,0,.329-.1.5.5,0,0,0,.142-.266,1.75,1.75,0,0,0,.036-.367V17.13a1.706,1.706,0,0,0-.036-.368.473.473,0,0,0-.142-.257.488.488,0,0,0-.329-.093.476.476,0,0,0-.319.093.459.459,0,0,0-.145.257,1.706,1.706,0,0,0-.036.368v2.249a1.9,1.9,0,0,0,.033.367.466.466,0,0,0,.142.266A.476.476,0,0,0,62.166,20.108Z"/></g><g class="cls-3"><path class="cls-2" d="M64.52,20.7V16.473h-.779v-.659h2.437v.659h-.767V20.7Z"/></g><g class="cls-3"><path class="cls-2" d="M66.418,20.7l.084-4.885h.923l.693,3.383.724-3.383h.892l.09,4.885h-.662l-.073-3.394L68.4,20.7h-.537l-.706-3.407L67.087,20.7Z"/></g><g class="cls-3"><path class="cls-2" d="M70.356,20.7V15.814h.88V20.7Z"/><path class="cls-2" d="M71.81,20.7V15.814h.621L73.618,18.6V15.814h.736V20.7h-.59L72.569,17.78V20.7Z"/><path class="cls-2" d="M74.914,20.7V15.814h2.051v.628H75.807v1.405h.911v.621h-.911v1.616h1.17V20.7Z"/></g></g></svg>