<svg id="Layer_1" data-name="Layer 1" xmlns="http://www.w3.org/2000/svg" viewBox="0 0 80 80"><defs><style>.cls-1{fill:#297243;}.cls-2{fill:#fff;}.cls-3{isolation:isolate;}</style></defs><path class="cls-1" d="M80,0H0V80H80Z"/><path class="cls-2" d="M10.1,6.709V22.832H7.386V10.491H7.365L5.46,12.467H5.438V9.638L7.929,6.709Z"/><path class="cls-2" d="M19.042,10.209v1.4a2.581,2.581,0,0,1-1.856,2.618,2.478,2.478,0,0,1,2,2.738v2.378c0,2.236-1.193,3.683-3.923,3.683-2.759,0-3.739-1.567-3.739-4.022V16.891H14V19.2c0,.953.331,1.567,1.263,1.567.832,0,1.213-.593,1.213-1.447V16.651c0-.854-.381-1.3-1.333-1.3H14V13.278h1.02c.882,0,1.446-.451,1.446-1.3V10.23c0-.882-.3-1.453-1.164-1.453s-1.164.571-1.164,1.573v1.637H11.662V10.562c0-2.378.973-4.043,3.781-4.043C17.941,6.519,19.042,7.923,19.042,10.209Z"/><path class="cls-2" d="M69.959,50.083a36.587,36.587,0,0,0-58.728,0c-.092.127-.17.233-.233.332.063.091.141.2.233.331a36.587,36.587,0,0,0,58.728,0c.092-.127.17-.24.226-.331C70.129,50.323,70.051,50.21,69.959,50.083Zm-39.248-7.3c.162-.233.691-.9.754-.988a.96.96,0,0,1,.6-.247c.191-.035.438.071.473.212a1.542,1.542,0,0,1-.17.783,2.088,2.088,0,0,1-1.312.593c-.289-.036-.4-.264-.345-.349Zm-.635,1.263.063-.078a1.612,1.612,0,0,1,.974-.352c.3-.05.719.1.769.3s-.769.579-.924.72c-.424.395-1.094,1.192-1.482,1.277a.472.472,0,0,1-.318-.035,12.11,12.11,0,0,1,.918-1.828Zm6.632,13.6a3.565,3.565,0,0,1-.755,1.58,2.541,2.541,0,0,1-1.687.642c-.564-.042-.642-1.538-.642-2.307,0-.268-.381.522-.571-1.079-.127-1.031-.783.106-.833-.579s-.374-.55-.726-.974-.776.043-1.256.261-.282.325-.96.113l-.042-.014a12.3,12.3,0,0,1-.9-6.035l.077-.113c.657-.776.642-.952.642-.952l.72-.247a12.053,12.053,0,0,1,2.025.5c.713.268,1.842.875,2.5.607.472-.2.846-.452.8-.847-.057-.494-.445-.614-.917-.282-.177.127-.544-.748-.84-.706s.36,1.023.113,1.066-.748-1.016-.832-1.193-.466-.6-.812-.268c-.727.691-1.912.649-2.152.826-.719.543-.91-.177-.9-.614.028-.1.064-.2.092-.3a1.488,1.488,0,0,1,1.376-.155c.317.212.55-.056.67-.183a.433.433,0,0,0,0-.5c-.078-.17.162-.3.325-.339A8.323,8.323,0,0,0,32.157,45a3.047,3.047,0,0,1,1.877-.008.989.989,0,0,0,1.234-.246,3.358,3.358,0,0,1,.9-.748c.177-.085-.444-.664-.952-.036s-.769.685-1.009.685-1.665-.353-1.842-.8.445-.783.974-1.044a12.767,12.767,0,0,1,2.335-.331c.748-.163,1.708-.544,2.188-.212s-2.011.889-1.193,1.333c.289.163,1.609-.755,2.06-.987,1.059-.551-1.03-.727-.762-1.842.3-1.256-2.568-.769-4-.663a12.341,12.341,0,0,1,18.654,7.514,2.042,2.042,0,0,1-.063.572.81.81,0,0,1-1.447.113c-.127-.177-.656-.678-.635.176s.833.946.043,1.461a3.109,3.109,0,0,1-1.3.522,1.647,1.647,0,0,0-.628,1.481c.084.473,1.213,1.757.381,1.708a4.838,4.838,0,0,1-1.919-1.672c-.254-.685-.537-1.348-.734-1.863a.74.74,0,0,0-.935-.47.718.718,0,0,0-.229.124c-.438.3.12.6-.191,1.242s-.543,1.214-1,.685c-1.206-1.383-2.956-.7-3.231-2.237-.148-.833-.868-.755-1.467-1.221s-.939-.727-1.045-.388c-.091.3,1.891,1.863,2.025,2.265.212.6-.592,1.122-1.178,1.263s-.84-.332-1.418-.931-.826-1.023-.868-.558a2.687,2.687,0,0,0,1.129,2.046c.5.318,1.058.459.9.974s0,.226-.565.776a1.511,1.511,0,0,0-.627,1.5c.042.769-.163.812-.283,1.454s-.389.078-.628,1.017ZM49.95,52.729c.417-.035,1.037.543.8.762a1.1,1.1,0,0,1-1.179-.106C49.259,53.145,49.767,52.743,49.95,52.729Zm-.522-.381c-.134-.05-.247-.177-.352-.48a.276.276,0,0,1,.4-.353,1.2,1.2,0,0,1,.585.706C50.063,52.432,49.562,52.4,49.428,52.348Zm-5.446-.014a1.1,1.1,0,0,1-1.179-.106c-.31-.24.2-.642.381-.656C43.6,51.529,44.221,52.108,43.982,52.334Zm-5.045,2.448c-.169.275-.635,2.357-.945,2.11s.127-2.406.218-2.576C38.7,53.427,39.748,53.47,38.937,54.782Zm1.679,8.044a12.507,12.507,0,0,1-3.471-.494A.517.517,0,0,1,37,61.725a2.764,2.764,0,0,1,2.42-1.475c2-.2,4.635,1.3,5.051,1.059s1.263-1.341,2.5-1.3a1.958,1.958,0,0,1,1.122.282A12.217,12.217,0,0,1,40.616,62.826Zm8.706-3.592a2.643,2.643,0,0,1-.388-.141c-.67-.345-.592.2-.924.085s.374-.889-.621-.24-.726-.1-1.157-1.2A2.244,2.244,0,0,1,47.509,55.1a15.978,15.978,0,0,1,2.244-.593c1.481-.367,1.8-1.249,2.067-.713.049.1.1.2.141.29a2.016,2.016,0,0,1,.191.8A12.351,12.351,0,0,1,49.322,59.234ZM52.7,53c-.332-.092-1.715-2-.621-3.267.183-.2-.367-.818-.219-.833.6-.049.917.325,1.073.861.014.24.021.473.021.72A11.91,11.91,0,0,1,52.7,53Z"/><g class="cls-3"><g class="cls-3"><path class="cls-2" d="M24.05,18.139V11.422h1.227v2.953L26.6,11.422h1.169l-1.285,3,1.418,3.715H26.687L25.559,15.08l-.282.513v2.546Z"/></g><g class="cls-3"><path class="cls-2" d="M28.138,18.139V11.422h1.227v5.871H30.99v.846Z"/></g><g class="cls-3"><path class="cls-2" d="M31.38,18.139V11.422h1.21v6.717Z"/><path class="cls-2" d="M33.419,18.139V11.422H34.63v6.717Z"/><path class="cls-2" d="M35.41,18.139l.116-6.717h1.268l.954,4.653,1-4.653H39.97l.125,6.717h-.912l-.1-4.668-.954,4.668h-.737l-.971-4.684-.091,4.684Z"/><path class="cls-2" d="M40.509,18.139l1.344-6.717h1.31l1.343,6.717H43.37L43.1,16.588H41.936l-.274,1.551Zm1.551-2.33h.912l-.456-2.819Z"/></g><g class="cls-3"><path class="cls-2" d="M44.889,18.139l.116-6.717h1.268l.954,4.653,1-4.653h1.227l.124,6.717h-.912l-.1-4.668-.954,4.668H46.87l-.97-4.684-.091,4.684Z"/></g><g class="cls-3"><path class="cls-2" d="M50.27,18.139V11.422h2.819v.863H51.5v1.932h1.252v.854H51.5v2.222h1.608v.846Z"/><path class="cls-2" d="M53.578,18.139V11.422H56.4v.863H54.806v1.932h1.252v.854H54.806v2.222h1.608v.846Z"/></g><g class="cls-3"><path class="cls-2" d="M57.54,18.139V12.327H56.471v-.9h3.35v.9H58.768v5.812Z"/></g><g class="cls-3"><path class="cls-2" d="M60.153,18.139l.117-6.717h1.268l.953,4.653.995-4.653h1.228l.124,6.717h-.912l-.1-4.668-.953,4.668h-.738l-.97-4.684-.092,4.684Z"/></g><g class="cls-3"><path class="cls-2" d="M65.534,18.139V11.422h2.82v.863H66.761v1.932h1.253v.854H66.761v2.222H68.37v.846Z"/><path class="cls-2" d="M68.843,18.139V11.422h1.583a2.984,2.984,0,0,1,1.281.225,1.3,1.3,0,0,1,.655.687,3.066,3.066,0,0,1,.2,1.178v2.454a3.27,3.27,0,0,1-.2,1.215,1.358,1.358,0,0,1-.646.722,2.714,2.714,0,0,1-1.24.236Zm1.226-.854h.373a.965.965,0,0,0,.606-.149.659.659,0,0,0,.224-.435,4.96,4.96,0,0,0,.041-.7V13.429a3.043,3.043,0,0,0-.057-.655.558.558,0,0,0-.241-.364,1.137,1.137,0,0,0-.589-.117h-.357Z"/></g></g></svg>