<svg id="Layer_1" data-name="Layer 1" xmlns="http://www.w3.org/2000/svg" viewBox="0 0 80 80"><defs><style>.cls-1{fill:#338fce;}.cls-2{fill:#fff;}.cls-3{isolation:isolate;}</style></defs><path class="cls-1" d="M80,0H0V80H80Z"/><path class="cls-2" d="M10.419,6.7V22.83H7.7V10.485H7.682L5.777,12.46H5.756V9.631L8.253,6.7Z"/><path class="cls-2" d="M18.682,22.832V20.215h1.093V18.1H18.682V6.7H16.015L11.323,18.549v1.666h4.784v2.617ZM13.708,18.1l2.427-6.64h.021V18.1Z"/><path class="cls-2" d="M61.422,58.374c-1.009-1.362-7.514-9.653-16.63-9.653C36.876,48.721,28.4,55.9,28.4,55.9s-3.182-6.513-9.687-7.141l-.12-.007h-.042a.267.267,0,0,0-.247.261.859.859,0,0,0,.1.24c.839,1.4,2.977,5.356,2.977,9.314,0,3.973-2.152,7.945-2.984,9.328l-.057.092-.042.134a.25.25,0,0,0,.24.254l.07-.007.071-.007c6.526-.607,9.722-7.141,9.722-7.141S36.867,68.4,44.79,68.4c9.116,0,15.621-8.291,16.63-9.645l.07-.092.022-.1-.022-.1ZM49.865,59.608a2.66,2.66,0,1,1,2.667-2.66,2.66,2.66,0,0,1-2.667,2.66Z"/><path class="cls-2" d="M18.512,33.134l-.05-.014a.267.267,0,0,0-.261.269V35.2l.078.19c4.4,3.824,8.572.24,9.531-.7l.071-.071.141-.049.176.07.015.007c4.974,4.749,10.188.9,11.267,0l.106-.1.1-.022.1.022.106.1c1.087.9,6.293,4.749,11.268,0l.007-.007.176-.07.148.049.071.071c.966.945,5.129,4.529,9.531.7l.078-.19V33.389a.262.262,0,0,0-.255-.269H60.91l-.057.014-.134.071a8.009,8.009,0,0,1-9.362-1.312l-.113-.106-.113-.021-.077.014-.134.1c-1.136.867-6.35,4.395-10.993.063l-.07-.063-.187-.08-.183.078-.071.063c-4.642,4.332-9.856.8-10.992-.063l-.127-.1-.084-.014-.113.021-.092.106A8.009,8.009,0,0,1,18.646,33.2Z"/><path class="cls-2" d="M27.811,41.291l.071-.071.141-.049.176.071.014.014c4.974,4.734,10.188.9,11.267,0l.106-.1.1-.014.106.014.106.1c1.086.9,6.293,4.734,11.267,0l.007-.014.176-.071.141.049.071.071c.967.945,5.129,4.529,9.532.705l.077-.183v-1.82a.265.265,0,0,0-.261-.261l-.056.014-.134.063A8.022,8.022,0,0,1,51.354,38.5l-.1-.106-.113-.028-.078.021-.134.1c-1.136.868-6.35,4.4-10.992.063l-.071-.07-.19-.071-.184.071-.07.07c-4.642,4.332-9.856.8-10.992-.063l-.127-.1-.085-.021-.106.028L28,38.5a8.019,8.019,0,0,1-9.362,1.312l-.134-.063-.05-.014a.255.255,0,0,0-.26.25v1.831L18.27,42C22.675,45.82,26.844,42.236,27.811,41.291Z"/><g class="cls-3"><g class="cls-3"><path class="cls-2" d="M26.914,13.666a1.537,1.537,0,0,1-.826-.194,1.059,1.059,0,0,1-.44-.555,2.5,2.5,0,0,1-.132-.856V10.235a2.428,2.428,0,0,1,.132-.848,1.04,1.04,0,0,1,.44-.54,1.949,1.949,0,0,1,1.662,0,1.057,1.057,0,0,1,.439.54,2.356,2.356,0,0,1,.136.848v1.833a2.385,2.385,0,0,1-.136.847,1.1,1.1,0,0,1-.439.554A1.529,1.529,0,0,1,26.914,13.666Zm0-.658a.477.477,0,0,0,.329-.1.5.5,0,0,0,.142-.266,1.75,1.75,0,0,0,.036-.367V10.03a1.706,1.706,0,0,0-.036-.368.473.473,0,0,0-.142-.257.488.488,0,0,0-.329-.093A.476.476,0,0,0,26.6,9.4a.459.459,0,0,0-.145.257,1.706,1.706,0,0,0-.036.368v2.249a1.9,1.9,0,0,0,.033.367.466.466,0,0,0,.142.266A.478.478,0,0,0,26.914,13.008Z"/><path class="cls-2" d="M30.128,13.666a1.537,1.537,0,0,1-.826-.194,1.059,1.059,0,0,1-.44-.555,2.471,2.471,0,0,1-.133-.856V10.235a2.4,2.4,0,0,1,.133-.848,1.04,1.04,0,0,1,.44-.54,1.949,1.949,0,0,1,1.662,0,1.062,1.062,0,0,1,.439.54,2.356,2.356,0,0,1,.136.848v1.833a2.385,2.385,0,0,1-.136.847,1.1,1.1,0,0,1-.439.554A1.532,1.532,0,0,1,30.128,13.666Zm0-.658a.477.477,0,0,0,.329-.1.5.5,0,0,0,.142-.266,1.75,1.75,0,0,0,.036-.367V10.03a1.706,1.706,0,0,0-.036-.368.473.473,0,0,0-.142-.257.488.488,0,0,0-.329-.093.476.476,0,0,0-.319.093.453.453,0,0,0-.145.257,1.706,1.706,0,0,0-.036.368v2.249a1.9,1.9,0,0,0,.033.367.46.46,0,0,0,.142.266A.476.476,0,0,0,30.128,13.008Z"/></g><g class="cls-3"><path class="cls-2" d="M32.016,13.6V8.714h.892v2.148l.965-2.148h.85L33.789,10.9l1.031,2.7h-.887l-.82-2.224-.2.373V13.6Z"/></g><g class="cls-3"><path class="cls-2" d="M34.989,13.6V8.714h2.05v.628H35.881v1.4h.911v.621h-.911v1.616h1.17V13.6Z"/></g><g class="cls-3"><path class="cls-2" d="M37.142,13.6l.977-4.885h.952l.977,4.885h-.826l-.193-1.128h-.85l-.2,1.128Zm1.127-1.694h.664L38.6,9.854Z"/></g><g class="cls-3"><path class="cls-2" d="M40.331,13.6V8.714h.621L42.14,11.5V8.714h.736V13.6h-.591L41.091,10.68V13.6Z"/><path class="cls-2" d="M43.461,13.6V8.714h.88V13.6Z"/><path class="cls-2" d="M44.89,11.905V11.35h1.453v.555Z"/><path class="cls-2" d="M47.85,13.719v-.627a1.878,1.878,0,0,0,.32-.023.4.4,0,0,0,.2-.088.357.357,0,0,0,.1-.187,1.38,1.38,0,0,0,.03-.316V8.714h.887v3.8a2.007,2.007,0,0,1-.1.678.708.708,0,0,1-.335.4,1.429,1.429,0,0,1-.672.129Z"/></g><g class="cls-3"><path class="cls-2" d="M49.694,13.6l.978-4.885h.952L52.6,13.6h-.826l-.193-1.128h-.851l-.2,1.128Zm1.128-1.694h.663l-.331-2.051Z"/></g><g class="cls-3"><path class="cls-2" d="M25.576,20.835l.084-4.885h.923l.693,3.383L28,15.95h.893l.089,4.885h-.663l-.072-3.395-.693,3.395h-.537l-.7-3.407-.067,3.407Z"/></g><g class="cls-3"><path class="cls-2" d="M29.489,20.835V15.95h2.05v.628H30.381v1.4h.911V18.6h-.911V20.22h1.17v.615Z"/></g><g class="cls-3"><path class="cls-2" d="M31.889,20.835V15.95h1.17a2.591,2.591,0,0,1,.835.118.957.957,0,0,1,.519.4,1.443,1.443,0,0,1,.177.771,2.368,2.368,0,0,1-.054.53,1.013,1.013,0,0,1-.184.4.827.827,0,0,1-.359.256l.682,2.406h-.893L33.191,18.6h-.41v2.237Zm.892-2.8h.278a.956.956,0,0,0,.413-.075.449.449,0,0,0,.22-.241,1.169,1.169,0,0,0,.066-.426.932.932,0,0,0-.135-.552.61.61,0,0,0-.516-.183h-.326Z"/></g><g class="cls-3"><path class="cls-2" d="M35.079,20.835V15.95h2.05v.628H35.971v1.4h.911V18.6h-.911V20.22h1.17v.615Z"/><path class="cls-2" d="M38.805,20.9a1.537,1.537,0,0,1-.826-.193,1.059,1.059,0,0,1-.44-.555,2.5,2.5,0,0,1-.133-.856V17.471a2.423,2.423,0,0,1,.133-.848,1.04,1.04,0,0,1,.44-.54,1.94,1.94,0,0,1,1.662,0,1.069,1.069,0,0,1,.44.54,2.376,2.376,0,0,1,.135.848V19.3a2.4,2.4,0,0,1-.135.846,1.105,1.105,0,0,1-.44.555A1.532,1.532,0,0,1,38.805,20.9Zm-.947-5.565v-.784h.724v.784Zm.947,4.908a.474.474,0,0,0,.329-.1.483.483,0,0,0,.141-.265,1.69,1.69,0,0,0,.037-.367V17.266a1.658,1.658,0,0,0-.037-.369.466.466,0,0,0-.141-.256.49.49,0,0,0-.329-.093.478.478,0,0,0-.319.093.453.453,0,0,0-.145.256,1.723,1.723,0,0,0-.036.369v2.249a1.911,1.911,0,0,0,.033.367.459.459,0,0,0,.141.265A.477.477,0,0,0,38.805,20.244Zm.236-4.908v-.784h.723v.784Z"/></g><g class="cls-3"><path class="cls-2" d="M40.693,20.835V15.95h.892V18.1l.965-2.148h.85l-.934,2.184,1.031,2.7H42.61l-.82-2.225-.2.373v1.852Z"/></g><g class="cls-3"><path class="cls-2" d="M44.975,20.9a1.543,1.543,0,0,1-.827-.193,1.064,1.064,0,0,1-.44-.555,2.5,2.5,0,0,1-.133-.856V17.471a2.423,2.423,0,0,1,.133-.848,1.044,1.044,0,0,1,.44-.54,1.94,1.94,0,0,1,1.662,0,1.064,1.064,0,0,1,.44.54,2.374,2.374,0,0,1,.136.848V19.3a2.4,2.4,0,0,1-.136.846,1.1,1.1,0,0,1-.44.555A1.533,1.533,0,0,1,44.975,20.9Zm0-.657a.415.415,0,0,0,.469-.362,1.69,1.69,0,0,0,.037-.367V17.266a1.658,1.658,0,0,0-.037-.369.46.46,0,0,0-.141-.256.488.488,0,0,0-.328-.093.481.481,0,0,0-.32.093.453.453,0,0,0-.145.256,1.723,1.723,0,0,0-.036.369v2.249a1.911,1.911,0,0,0,.033.367.459.459,0,0,0,.141.265A.48.48,0,0,0,44.975,20.244Z"/><path class="cls-2" d="M48.092,20.9a1.442,1.442,0,0,1-.736-.172,1.081,1.081,0,0,1-.446-.5,2.172,2.172,0,0,1-.169-.814l.766-.151a2.385,2.385,0,0,0,.069.5.734.734,0,0,0,.175.335.421.421,0,0,0,.311.117.347.347,0,0,0,.307-.13.553.553,0,0,0,.091-.328.894.894,0,0,0-.145-.525,2.267,2.267,0,0,0-.386-.41l-.615-.543a1.84,1.84,0,0,1-.413-.5,1.376,1.376,0,0,1-.154-.678,1.156,1.156,0,0,1,.338-.893,1.3,1.3,0,0,1,.923-.314A1.371,1.371,0,0,1,48.58,16a.915.915,0,0,1,.365.292,1.33,1.33,0,0,1,.2.426,2.435,2.435,0,0,1,.084.5l-.759.132a2.746,2.746,0,0,0-.051-.41.572.572,0,0,0-.139-.283.391.391,0,0,0-.293-.1.369.369,0,0,0-.3.129.493.493,0,0,0-.106.323.736.736,0,0,0,.1.407,1.6,1.6,0,0,0,.3.329l.608.536a2.537,2.537,0,0,1,.516.594,1.523,1.523,0,0,1,.214.823,1.228,1.228,0,0,1-.154.621,1.093,1.093,0,0,1-.428.425A1.287,1.287,0,0,1,48.092,20.9Z"/><path class="cls-2" d="M51,20.9a1.523,1.523,0,0,1-.844-.2,1.016,1.016,0,0,1-.416-.566,2.961,2.961,0,0,1-.115-.881v-3.3h.869v3.407a3.09,3.09,0,0,0,.029.432.612.612,0,0,0,.142.325.429.429,0,0,0,.335.124.423.423,0,0,0,.341-.124.66.66,0,0,0,.139-.325,2.678,2.678,0,0,0,.033-.432V15.95h.862v3.305a3,3,0,0,1-.114.881,1.025,1.025,0,0,1-.413.566A1.524,1.524,0,0,1,51,20.9Zm-.952-5.565v-.784h.724v.784Zm1.182,0v-.784h.723v.784Z"/><path class="cls-2" d="M54.122,20.9a1.439,1.439,0,0,1-.736-.172,1.078,1.078,0,0,1-.447-.5,2.173,2.173,0,0,1-.168-.814l.766-.151a2.321,2.321,0,0,0,.069.5.734.734,0,0,0,.175.335.421.421,0,0,0,.311.117.347.347,0,0,0,.307-.13.56.56,0,0,0,.09-.328.894.894,0,0,0-.144-.525,2.34,2.34,0,0,0-.386-.41l-.615-.543a1.822,1.822,0,0,1-.413-.5,1.365,1.365,0,0,1-.154-.678,1.162,1.162,0,0,1,.337-.893,1.306,1.306,0,0,1,.923-.314A1.373,1.373,0,0,1,54.61,16a.908.908,0,0,1,.365.292,1.33,1.33,0,0,1,.2.426,2.577,2.577,0,0,1,.085.5l-.76.132a2.614,2.614,0,0,0-.052-.41.571.571,0,0,0-.138-.283.393.393,0,0,0-.292-.1.371.371,0,0,0-.3.129.5.5,0,0,0-.106.323.745.745,0,0,0,.1.407,1.6,1.6,0,0,0,.295.329l.609.536a2.537,2.537,0,0,1,.516.594,1.523,1.523,0,0,1,.214.823,1.228,1.228,0,0,1-.154.621,1.1,1.1,0,0,1-.428.425A1.287,1.287,0,0,1,54.122,20.9Z"/><path class="cls-2" d="M56.178,20.835V16.608H55.4V15.95h2.436v.658H57.07v4.227Z"/><path class="cls-2" d="M58.1,20.835V15.95h2.049v.628H58.994v1.4h.91V18.6h-.91V20.22h1.17v.615Z"/><path class="cls-2" d="M60.5,20.835V15.95h2.051v.628H61.394v1.4h.911V18.6h-.911V20.22h1.169v.615Z"/></g><g class="cls-3"><path class="cls-2" d="M62.889,20.835l.085-4.885H63.9l.693,3.383.723-3.383h.893l.091,4.885h-.663L65.56,17.44l-.694,3.395H64.33l-.706-3.407-.066,3.407Z"/></g><g class="cls-3"><path class="cls-2" d="M66.827,20.835V15.95h.88v4.885Z"/><path class="cls-2" d="M68.28,20.835V15.95h1.152a2.171,2.171,0,0,1,.931.163.952.952,0,0,1,.477.5,2.221,2.221,0,0,1,.141.857v1.784a2.381,2.381,0,0,1-.141.884.984.984,0,0,1-.471.524,1.97,1.97,0,0,1-.9.172Zm.893-.621h.271a.694.694,0,0,0,.44-.109.478.478,0,0,0,.163-.316,3.661,3.661,0,0,0,.03-.51V17.41a2.173,2.173,0,0,0-.042-.476.409.409,0,0,0-.175-.266.83.83,0,0,0-.428-.084h-.259Z"/></g></g></svg>