<svg id="Layer_1" data-name="Layer 1" xmlns="http://www.w3.org/2000/svg" viewBox="0 0 80 80"><defs><style>.cls-1{fill:#0c3a5c;}.cls-2{fill:#fff;}.cls-3{isolation:isolate;}</style></defs><path class="cls-1" d="M80,0H0V80H80Z"/><path class="cls-2" d="M11.972,6.71V22.833H9.256V10.492H9.235L7.33,12.46H7.309V9.631l2.5-2.921Z"/><path class="cls-2" d="M13.207,6.71h6.8V9.2l-3.54,13.633H13.778L17.391,8.918H13.207Z"/><path class="cls-2" d="M60.329,48.516a10.423,10.423,0,0,0-10.04-10.407,10.414,10.414,0,0,0-19.642,0,10.408,10.408,0,0,0-6.018,18.62,10.3,10.3,0,0,0-.409,2.893,10.415,10.415,0,0,0,16.3,8.594,10.4,10.4,0,0,0,15.8-11.494A10.4,10.4,0,0,0,60.329,48.516ZM48.793,41.58A8.322,8.322,0,0,1,41.7,49.8a8.429,8.429,0,0,1-.113-1.278,8.327,8.327,0,0,1,7.1-8.22A9.427,9.427,0,0,1,48.793,41.58ZM40.51,65.514a8.3,8.3,0,0,1-.186-11.736c.038-.04.077-.079.116-.118a8.281,8.281,0,0,1,.213,11.709C40.606,65.418,40.558,65.466,40.51,65.514ZM32.256,40.3a8.327,8.327,0,0,1,7.1,8.22,8.526,8.526,0,0,1-.105,1.277,8.332,8.332,0,0,1-7.1-8.22A8.526,8.526,0,0,1,32.256,40.3Zm6.2,11.946a8.289,8.289,0,0,1-11.114,3.726c-.048-.023-.095-.047-.142-.072a8.289,8.289,0,0,1,11.112-3.734l.141.072Zm3.994-.057a8.289,8.289,0,0,1,11.2,3.478c.039.073.077.147.113.222a8.235,8.235,0,0,1-3.852.952,8.323,8.323,0,0,1-7.456-4.656ZM40.468,33.254a8.329,8.329,0,0,1,7.627,5,10.451,10.451,0,0,0-7.627,5.856,10.451,10.451,0,0,0-7.627-5.856A8.34,8.34,0,0,1,40.468,33.254ZM22.71,48.516a8.325,8.325,0,0,1,7.429-8.269,10.6,10.6,0,0,0-.084,1.333,10.374,10.374,0,0,0,3.407,7.7,10.441,10.441,0,0,0-7.986,5.412A8.264,8.264,0,0,1,22.71,48.516Zm3.605,11.106a8.227,8.227,0,0,1,.184-1.728,10.4,10.4,0,0,0,9.559-.261,10.837,10.837,0,0,0-.183,1.919A10.378,10.378,0,0,0,38.817,66.8a8.3,8.3,0,0,1-12.5-7.176Zm28.306-.063A8.3,8.3,0,0,1,42.2,66.784a10.385,10.385,0,0,0,2.857-7.162,10.91,10.91,0,0,0-.191-2,10.407,10.407,0,0,0,9.589.261A8.2,8.2,0,0,1,54.621,59.559ZM47.552,49.215A10.416,10.416,0,0,0,50.8,40.247a8.3,8.3,0,0,1,4.7,14.415A10.438,10.438,0,0,0,47.552,49.215Z"/><g class="cls-3"><g class="cls-3"><path class="cls-2" d="M26.468,10.8a1.249,1.249,0,0,1-.687-.161.834.834,0,0,1-.338-.461,2.44,2.44,0,0,1-.093-.716V6.778h.706V9.549a2.416,2.416,0,0,0,.024.35.5.5,0,0,0,.115.265.351.351,0,0,0,.273.1.346.346,0,0,0,.277-.1.532.532,0,0,0,.112-.265,2.152,2.152,0,0,0,.027-.35V6.778h.7V9.466a2.44,2.44,0,0,1-.093.716.839.839,0,0,1-.335.461A1.247,1.247,0,0,1,26.468,10.8Zm-.775-4.526V5.641h.588v.637Zm.961,0V5.641h.588v.637Z"/></g><g class="cls-3"><path class="cls-2" d="M28.007,10.75V6.778h.726V10.25h.961v.5Z"/></g><g class="cls-3"><path class="cls-2" d="M29.9,10.75V6.778h1.667v.51H30.63V8.431h.74v.505h-.74V10.25h.951v.5Z"/><path class="cls-2" d="M31.88,10.75V6.778H32.6V10.75Z"/><path class="cls-2" d="M33.067,10.75V6.778h.725V10.25h.961v.5Z"/></g><g class="cls-3"><path class="cls-2" d="M34.964,10.75l.069-3.972h.75l.564,2.751.588-2.751h.726l.073,3.972H37.2l-.059-2.761-.564,2.761h-.436l-.574-2.771-.054,2.771Z"/></g><g class="cls-3"><path class="cls-2" d="M38.146,10.75V6.778h.505l.966,2.266V6.778h.6V10.75h-.48l-.971-2.373V10.75Z"/><path class="cls-2" d="M40.676,10.75V6.778h1.667v.51H41.4V8.431h.741v.505H41.4V10.25h.952v.5Z"/></g><g class="cls-3"><path class="cls-2" d="M43.667,10.75V6.778h.726V8.524l.784-1.746h.691l-.76,1.776.839,2.2h-.72L44.56,8.94l-.167.3V10.75Z"/></g><g class="cls-3"><path class="cls-2" d="M47.148,10.8a1.246,1.246,0,0,1-.671-.157.865.865,0,0,1-.359-.451,2.043,2.043,0,0,1-.108-.7V8.014a1.985,1.985,0,0,1,.108-.689.835.835,0,0,1,.359-.438,1.563,1.563,0,0,1,1.349,0,.854.854,0,0,1,.359.438,1.937,1.937,0,0,1,.11.689V9.505a1.951,1.951,0,0,1-.11.688.9.9,0,0,1-.359.452A1.241,1.241,0,0,1,47.148,10.8Zm0-.534a.339.339,0,0,0,.382-.294,1.412,1.412,0,0,0,.03-.3V7.848a1.35,1.35,0,0,0-.03-.3.371.371,0,0,0-.115-.209.394.394,0,0,0-.267-.076.386.386,0,0,0-.26.076.374.374,0,0,0-.118.209,1.35,1.35,0,0,0-.03.3V9.676a1.561,1.561,0,0,0,.028.3.37.37,0,0,0,.115.215A.388.388,0,0,0,47.148,10.27Z"/><path class="cls-2" d="M49.766,10.8a1.249,1.249,0,0,1-.672-.157.878.878,0,0,1-.358-.451,2.02,2.02,0,0,1-.107-.7V8.014a1.963,1.963,0,0,1,.107-.689.847.847,0,0,1,.358-.438,1.568,1.568,0,0,1,1.351,0,.862.862,0,0,1,.358.438,1.915,1.915,0,0,1,.11.689V9.505a1.928,1.928,0,0,1-.11.688.908.908,0,0,1-.358.452A1.249,1.249,0,0,1,49.766,10.8Zm0-.534a.385.385,0,0,0,.267-.079.394.394,0,0,0,.115-.215,1.412,1.412,0,0,0,.03-.3V7.848a1.35,1.35,0,0,0-.03-.3.376.376,0,0,0-.115-.209.391.391,0,0,0-.267-.076.384.384,0,0,0-.26.076.367.367,0,0,0-.117.209,1.35,1.35,0,0,0-.03.3V9.676a1.564,1.564,0,0,0,.027.3.376.376,0,0,0,.115.215A.392.392,0,0,0,49.766,10.27Z"/><path class="cls-2" d="M52.306,10.8a1.165,1.165,0,0,1-.6-.14.873.873,0,0,1-.362-.409,1.759,1.759,0,0,1-.138-.662l.623-.122a1.821,1.821,0,0,0,.057.406.58.58,0,0,0,.142.272.338.338,0,0,0,.252.1.284.284,0,0,0,.25-.1.46.46,0,0,0,.073-.268.717.717,0,0,0-.118-.426,1.831,1.831,0,0,0-.312-.334l-.5-.441a1.481,1.481,0,0,1-.336-.4,1.11,1.11,0,0,1-.125-.552.945.945,0,0,1,.273-.726,1.062,1.062,0,0,1,.75-.255,1.119,1.119,0,0,1,.467.086.757.757,0,0,1,.3.238,1.123,1.123,0,0,1,.164.345,2.065,2.065,0,0,1,.068.41l-.617.108a2.18,2.18,0,0,0-.043-.333.452.452,0,0,0-.112-.231.32.32,0,0,0-.237-.084.3.3,0,0,0-.248.106.4.4,0,0,0-.086.263.594.594,0,0,0,.084.331,1.19,1.19,0,0,0,.24.266l.494.437a2.049,2.049,0,0,1,.42.483,1.24,1.24,0,0,1,.174.669,1,1,0,0,1-.125.505.891.891,0,0,1-.348.346A1.042,1.042,0,0,1,52.306,10.8Z"/></g><g class="cls-3"><path class="cls-2" d="M53.967,10.75V7.313h-.632V6.778h1.98v.535h-.622V10.75Z"/></g><g class="cls-3"><path class="cls-2" d="M56.591,10.8a1.252,1.252,0,0,1-.672-.157.866.866,0,0,1-.357-.451,2,2,0,0,1-.109-.7V8.014a1.938,1.938,0,0,1,.109-.689.836.836,0,0,1,.357-.438,1.568,1.568,0,0,1,1.351,0,.852.852,0,0,1,.358.438,1.937,1.937,0,0,1,.11.689V9.505a1.951,1.951,0,0,1-.11.688.9.9,0,0,1-.358.452A1.249,1.249,0,0,1,56.591,10.8Zm-.77-4.526V5.641h.588v.637Zm.77,3.992a.387.387,0,0,0,.267-.079.4.4,0,0,0,.116-.215,1.483,1.483,0,0,0,.029-.3V7.848a1.417,1.417,0,0,0-.029-.3.384.384,0,0,0-.116-.209.392.392,0,0,0-.267-.076.388.388,0,0,0-.26.076.374.374,0,0,0-.118.209,1.354,1.354,0,0,0-.029.3V9.676a1.564,1.564,0,0,0,.027.3.382.382,0,0,0,.115.215A.392.392,0,0,0,56.591,10.27Zm.191-3.992V5.641h.588v.637Z"/><path class="cls-2" d="M59.209,10.8a1.252,1.252,0,0,1-.672-.157.866.866,0,0,1-.357-.451,2,2,0,0,1-.109-.7V8.014a1.938,1.938,0,0,1,.109-.689.836.836,0,0,1,.357-.438,1.568,1.568,0,0,1,1.351,0,.852.852,0,0,1,.358.438,1.937,1.937,0,0,1,.11.689V9.505a1.951,1.951,0,0,1-.11.688.9.9,0,0,1-.358.452A1.247,1.247,0,0,1,59.209,10.8Zm-.77-4.526V5.641h.588v.637Zm.77,3.992a.392.392,0,0,0,.268-.079.407.407,0,0,0,.115-.215,1.483,1.483,0,0,0,.029-.3V7.848a1.417,1.417,0,0,0-.029-.3.389.389,0,0,0-.115-.209.4.4,0,0,0-.268-.076.339.339,0,0,0-.378.285,1.417,1.417,0,0,0-.029.3V9.676a1.648,1.648,0,0,0,.027.3.382.382,0,0,0,.115.215A.392.392,0,0,0,59.209,10.27ZM59.4,6.278V5.641h.588v.637Z"/></g><g class="cls-3"><path class="cls-2" d="M25.379,16.634V12.662h1.667v.51h-.941v1.142h.74v.505h-.74v1.315h.951v.5Z"/><path class="cls-2" d="M27.335,16.634V12.662H29v.51h-.941v1.142h.74v.505h-.74v1.315h.951v.5Z"/></g><g class="cls-3"><path class="cls-2" d="M30.282,16.688a1.163,1.163,0,0,1-.6-.14.885.885,0,0,1-.363-.409,1.76,1.76,0,0,1-.137-.662l.623-.123a1.886,1.886,0,0,0,.056.407.58.58,0,0,0,.142.272.342.342,0,0,0,.253.1.284.284,0,0,0,.25-.106.455.455,0,0,0,.073-.267.715.715,0,0,0-.118-.426A1.807,1.807,0,0,0,30.15,15l-.5-.441a1.488,1.488,0,0,1-.336-.4,1.106,1.106,0,0,1-.125-.551.942.942,0,0,1,.274-.726,1.059,1.059,0,0,1,.75-.255,1.1,1.1,0,0,1,.466.086.756.756,0,0,1,.3.237,1.094,1.094,0,0,1,.164.346,2.065,2.065,0,0,1,.069.41l-.618.108a2.053,2.053,0,0,0-.042-.333.46.46,0,0,0-.112-.231.321.321,0,0,0-.238-.084.3.3,0,0,0-.248.106.4.4,0,0,0-.086.262.6.6,0,0,0,.084.331,1.244,1.244,0,0,0,.24.267l.5.437a2.052,2.052,0,0,1,.42.483,1.24,1.24,0,0,1,.173.669,1,1,0,0,1-.125.5.888.888,0,0,1-.348.345A1.043,1.043,0,0,1,30.282,16.688Z"/></g><g class="cls-3"><path class="cls-2" d="M31.527,16.634l.069-3.972h.75l.564,2.751.588-2.751h.726l.073,3.972h-.539L33.7,13.873l-.564,2.761H32.7l-.574-2.771-.054,2.771Z"/></g><g class="cls-3"><path class="cls-2" d="M34.538,16.634l.8-3.972h.774l.794,3.972h-.672l-.156-.917h-.692l-.161.917Zm.407-4.472v-.638h.588v.638Zm.51,3.094h.539l-.269-1.667Zm.451-3.094v-.638h.588v.638Z"/></g><g class="cls-3"><path class="cls-2" d="M37.131,16.634V12.662h.952a2.085,2.085,0,0,1,.678.1.781.781,0,0,1,.422.326,1.177,1.177,0,0,1,.145.628,1.944,1.944,0,0,1-.044.431.831.831,0,0,1-.15.326.681.681,0,0,1-.292.209l.554,1.956h-.725l-.481-1.82h-.333v1.82Zm.726-2.276h.226a.767.767,0,0,0,.335-.06.363.363,0,0,0,.179-.2.944.944,0,0,0,.054-.346.76.76,0,0,0-.11-.449.492.492,0,0,0-.419-.15h-.265Z"/></g><g class="cls-3"><path class="cls-2" d="M39.726,16.634V12.662h.725v1.746l.784-1.746h.692l-.76,1.776.838,2.2h-.721l-.667-1.81-.166.3v1.505Z"/></g><g class="cls-3"><path class="cls-2" d="M42.162,16.634V12.662h.716v3.972Z"/><path class="cls-2" d="M43.349,16.634V12.662h.935a1.755,1.755,0,0,1,.758.133.771.771,0,0,1,.388.407,1.824,1.824,0,0,1,.115.7V15.35a1.951,1.951,0,0,1-.115.717.8.8,0,0,1-.383.427,1.6,1.6,0,0,1-.733.14Zm.725-.5H44.3a.56.56,0,0,0,.357-.089.383.383,0,0,0,.133-.257,3,3,0,0,0,.025-.414v-1.52a1.742,1.742,0,0,0-.035-.387.33.33,0,0,0-.142-.216.673.673,0,0,0-.349-.069h-.21Z"/><path class="cls-2" d="M45.938,16.634V12.662H47.6v.51h-.941v1.142h.74v.505h-.74v1.315h.951v.5Z"/></g><g class="cls-3"><path class="cls-2" d="M26.379,22.571a1.166,1.166,0,0,1-.6-.14.88.88,0,0,1-.363-.409,1.756,1.756,0,0,1-.137-.662l.623-.122a1.885,1.885,0,0,0,.056.406.59.59,0,0,0,.143.273.341.341,0,0,0,.252.095.283.283,0,0,0,.25-.105.458.458,0,0,0,.073-.268.724.724,0,0,0-.117-.426,1.883,1.883,0,0,0-.314-.334l-.5-.441a1.5,1.5,0,0,1-.336-.4,1.121,1.121,0,0,1-.125-.552.939.939,0,0,1,.275-.726,1.059,1.059,0,0,1,.75-.255,1.113,1.113,0,0,1,.465.086.743.743,0,0,1,.3.238,1.089,1.089,0,0,1,.164.345,2.063,2.063,0,0,1,.069.411l-.618.107a1.961,1.961,0,0,0-.042-.333.453.453,0,0,0-.112-.23.317.317,0,0,0-.238-.084.3.3,0,0,0-.248.105.4.4,0,0,0-.086.263.6.6,0,0,0,.084.331,1.272,1.272,0,0,0,.24.266l.495.437a2.092,2.092,0,0,1,.42.483,1.24,1.24,0,0,1,.174.669,1.006,1.006,0,0,1-.125.505.887.887,0,0,1-.349.346A1.04,1.04,0,0,1,26.379,22.571Z"/></g><g class="cls-3"><path class="cls-2" d="M27.433,22.517l.8-3.972H29l.794,3.972h-.671l-.157-.917h-.692l-.161.917Zm.917-1.378h.539l-.269-1.667Z"/></g><g class="cls-3"><path class="cls-2" d="M29.845,22.517l.8-3.972h.774l.794,3.972h-.671L31.38,21.6h-.692l-.161.917Zm.917-1.378H31.3l-.269-1.667Z"/></g><g class="cls-3"><path class="cls-2" d="M32.92,22.517l-.8-3.972h.642l.525,2.81.49-2.81h.657l-.8,3.972Z"/><path class="cls-2" d="M35.789,22.571a1.249,1.249,0,0,1-.687-.161.829.829,0,0,1-.338-.461,2.433,2.433,0,0,1-.094-.716V18.545h.706v2.771a2.436,2.436,0,0,0,.025.351.493.493,0,0,0,.115.264.346.346,0,0,0,.273.1.341.341,0,0,0,.276-.1.524.524,0,0,0,.113-.264,2.174,2.174,0,0,0,.027-.351V18.545h.7v2.688a2.435,2.435,0,0,1-.093.716.839.839,0,0,1-.335.461A1.249,1.249,0,0,1,35.789,22.571Z"/></g><g class="cls-3"><path class="cls-2" d="M37.719,22.517V19.081h-.632v-.536h1.98v.536h-.622v3.436Z"/></g><g class="cls-3"><path class="cls-2" d="M38.985,22.517l.8-3.972h.774l.795,3.972h-.672L40.52,21.6h-.691l-.162.917Zm.917-1.378h.539l-.269-1.667Z"/></g><g class="cls-3"><path class="cls-2" d="M41.588,22.517l.069-3.972h.75l.564,2.751.589-2.751h.725l.073,3.972h-.539l-.058-2.761L43.2,22.517H42.76l-.573-2.77-.054,2.77Z"/></g><g class="cls-3"><path class="cls-2" d="M44.79,22.517V18.545h.716v3.972Z"/></g><g class="cls-3"><path class="cls-2" d="M46.972,22.571a1.165,1.165,0,0,1-.6-.14.873.873,0,0,1-.362-.409,1.755,1.755,0,0,1-.138-.662l.623-.122a1.885,1.885,0,0,0,.056.406.6.6,0,0,0,.142.273.345.345,0,0,0,.253.095.286.286,0,0,0,.25-.105.458.458,0,0,0,.074-.268.718.718,0,0,0-.119-.426,1.839,1.839,0,0,0-.313-.334l-.5-.441a1.5,1.5,0,0,1-.336-.4,1.121,1.121,0,0,1-.125-.552.945.945,0,0,1,.274-.726,1.062,1.062,0,0,1,.75-.255,1.115,1.115,0,0,1,.466.086.743.743,0,0,1,.3.238,1.089,1.089,0,0,1,.164.345,1.994,1.994,0,0,1,.069.411l-.618.107a2.068,2.068,0,0,0-.042-.333.445.445,0,0,0-.112-.23.317.317,0,0,0-.238-.084.3.3,0,0,0-.247.105.4.4,0,0,0-.086.263.6.6,0,0,0,.083.331,1.218,1.218,0,0,0,.24.266l.495.437a2.069,2.069,0,0,1,.42.483,1.24,1.24,0,0,1,.174.669,1.006,1.006,0,0,1-.125.505.88.88,0,0,1-.349.346A1.038,1.038,0,0,1,46.972,22.571Z"/></g><g class="cls-3"><path class="cls-2" d="M48.207,22.517V18.545h1.667v.51h-.941V20.2h.74v.5h-.74v1.314h.951v.5Z"/></g><g class="cls-3"><path class="cls-2" d="M50.158,22.517V18.545h.726v1.747l.784-1.747h.691L51.6,20.321l.838,2.2h-.72l-.667-1.809-.167.3v1.5Z"/><path class="cls-2" d="M53.531,22.571a1.162,1.162,0,0,1-.6-.14.877.877,0,0,1-.364-.409,1.737,1.737,0,0,1-.136-.662l.622-.122a1.885,1.885,0,0,0,.056.406.59.59,0,0,0,.143.273.341.341,0,0,0,.252.095.283.283,0,0,0,.25-.105.458.458,0,0,0,.073-.268.724.724,0,0,0-.117-.426,1.847,1.847,0,0,0-.314-.334l-.5-.441a1.517,1.517,0,0,1-.336-.4,1.11,1.11,0,0,1-.125-.552.939.939,0,0,1,.275-.726,1.059,1.059,0,0,1,.75-.255,1.118,1.118,0,0,1,.466.086.764.764,0,0,1,.3.238,1.089,1.089,0,0,1,.164.345,2.063,2.063,0,0,1,.068.411l-.617.107a2.187,2.187,0,0,0-.042-.333.461.461,0,0,0-.113-.23.315.315,0,0,0-.238-.084.3.3,0,0,0-.248.105.409.409,0,0,0-.086.263.611.611,0,0,0,.084.331,1.272,1.272,0,0,0,.24.266l.5.437a2.112,2.112,0,0,1,.419.483,1.231,1.231,0,0,1,.173.669,1,1,0,0,1-.125.505.888.888,0,0,1-.347.346A1.049,1.049,0,0,1,53.531,22.571Z"/></g></g></svg>