<svg id="Layer_1" data-name="Layer 1" xmlns="http://www.w3.org/2000/svg" viewBox="0 0 80 80"><defs><style>.cls-1{fill:#379c4b;}.cls-2{fill:#fff;}.cls-3{isolation:isolate;}</style></defs><path class="cls-1" d="M80,0H0V80H80Z"/><path class="cls-2" d="M11.414,23.046c2.733,0,3.929-1.451,3.929-3.689V16.978a2.477,2.477,0,0,0-2-2.733A2.573,2.573,0,0,0,15.2,11.633v-1.4c0-2.287-1.1-3.689-3.59-3.689-2.811,0-3.781,1.664-3.781,4.043v1.43H10.3V10.372c0-1,.312-1.571,1.168-1.571s1.162.573,1.162,1.451v1.735a1.272,1.272,0,0,1-1.215,1.325,1.318,1.318,0,0,1-.235-.012H10.153v2.067H11.3c.949,0,1.332.453,1.332,1.31v2.662c0,.857-.383,1.452-1.211,1.452-.928,0-1.261-.617-1.261-1.572v-2.3H7.689v2.117C7.682,21.481,8.659,23.046,11.414,23.046Z"/><path class="cls-2" d="M66.873,49.993c0-2.251-1.445-4.078-3.632-4.078-1.091,0-2.415,1.2-3.13,1.933-.715-.736-1.947-1.94-3.044-1.94a3.824,3.824,0,0,0-3.724,3.923c0,.052,0,.1.007.155a4.1,4.1,0,0,0,1.161,2.882l5.607,5.615,5.6-5.615h-.007A4.1,4.1,0,0,0,66.873,49.993Z"/><path class="cls-2" d="M43,67.666h-.057a.916.916,0,0,1-.849-.765L39.245,50.312l-4.319,8a.912.912,0,0,1-.97.467.924.924,0,0,1-.75-.779L31.372,45.2l-3.349,7.527a.919.919,0,0,1-.842.545H14.153a.921.921,0,0,1-.061-1.841H26.579l4.411-9.9a.923.923,0,0,1,1.756.24l1.89,13.2,4.255-7.887a.93.93,0,0,1,.963-.475.918.918,0,0,1,.758.751l2.641,15.364,9.615-31.932a.918.918,0,0,1,.807-.652.934.934,0,0,1,.906.517l5.056,10.486a.923.923,0,0,1-1.664.8h0l-4.029-8.354L43.876,67.007A.917.917,0,0,1,43,67.666Z"/><g class="cls-3"><g class="cls-3"><path class="cls-2" d="M22.788,13.24V6.668h1.193V9.419H25.32V6.668h1.2V13.24h-1.2V10.271H23.981V13.24Z"/><path class="cls-2" d="M27.2,13.24V6.668h2.759v.844H28.4V9.4h1.225v.836H28.4v2.175h1.574v.827Z"/></g><g class="cls-3"><path class="cls-2" d="M30.179,13.24l1.315-6.572h1.282L34.09,13.24H32.979l-.26-1.517H31.575l-.268,1.517ZM31.7,10.96h.892L32.143,8.2Z"/></g><g class="cls-3"><path class="cls-2" d="M36.533,13.24V7.553H35.486V6.668h3.278v.885h-1.03V13.24Z"/><path class="cls-2" d="M39.041,13.24V6.668H41.8v.844H40.241V9.4h1.226v.836H40.241v2.175h1.574v.827Z"/></g><g class="cls-3"><path class="cls-2" d="M42.189,13.24V6.668h1.574a3.487,3.487,0,0,1,1.124.158,1.3,1.3,0,0,1,.7.539A1.951,1.951,0,0,1,45.824,8.4a3.168,3.168,0,0,1-.073.714,1.37,1.37,0,0,1-.247.54,1.109,1.109,0,0,1-.483.345l.917,3.237h-1.2l-.8-3.011H43.39V13.24Zm1.2-3.764h.373a1.284,1.284,0,0,0,.556-.1.589.589,0,0,0,.3-.324,1.554,1.554,0,0,0,.089-.572,1.237,1.237,0,0,0-.183-.743.813.813,0,0,0-.693-.248H43.39Z"/></g><g class="cls-3"><path class="cls-2" d="M47.389,13.24,46.066,6.668h1.063L48,11.317l.811-4.649H49.9L48.573,13.24Z"/><path class="cls-2" d="M50.277,13.24V6.668h1.185V13.24Z"/></g><g class="cls-3"><path class="cls-2" d="M53.807,13.329a1.956,1.956,0,0,1-.991-.23,1.458,1.458,0,0,1-.6-.678,2.933,2.933,0,0,1-.228-1.1l1.032-.2a3.154,3.154,0,0,0,.092.674.976.976,0,0,0,.236.45.562.562,0,0,0,.418.158.468.468,0,0,0,.414-.174.754.754,0,0,0,.121-.442,1.2,1.2,0,0,0-.2-.706,2.986,2.986,0,0,0-.519-.552L52.76,9.8a2.48,2.48,0,0,1-.556-.669A1.835,1.835,0,0,1,52,8.218a1.556,1.556,0,0,1,.454-1.2A1.75,1.75,0,0,1,53.692,6.6a1.858,1.858,0,0,1,.772.142,1.223,1.223,0,0,1,.49.394,1.776,1.776,0,0,1,.273.571,3.555,3.555,0,0,1,.113.678l-1.023.179a3.4,3.4,0,0,0-.069-.552.775.775,0,0,0-.186-.382.523.523,0,0,0-.394-.138.5.5,0,0,0-.409.175.663.663,0,0,0-.143.434.993.993,0,0,0,.139.548,2.141,2.141,0,0,0,.4.442l.82.722a3.386,3.386,0,0,1,.693.8,2.042,2.042,0,0,1,.288,1.108,1.659,1.659,0,0,1-.207.836,1.493,1.493,0,0,1-.576.572A1.735,1.735,0,0,1,53.807,13.329Z"/></g><g class="cls-3"><path class="cls-2" d="M22.358,22.9v-.843a2.326,2.326,0,0,0,.43-.033.518.518,0,0,0,.264-.118.483.483,0,0,0,.134-.251,1.911,1.911,0,0,0,.04-.426V16.168h1.193v5.111a2.743,2.743,0,0,1-.13.913.958.958,0,0,1-.45.537,1.925,1.925,0,0,1-.9.173Z"/></g><g class="cls-3"><path class="cls-2" d="M24.759,22.74l1.315-6.572h1.282L28.67,22.74H27.559l-.26-1.517H26.155l-.268,1.517Zm1.518-2.28h.892L26.723,17.7Z"/></g><g class="cls-3"><path class="cls-2" d="M30.634,22.74V16.168h1.193v2.751h1.339V16.168h1.2V22.74h-1.2V19.771H31.827V22.74Z"/><path class="cls-2" d="M35.048,22.74V16.168h2.759v.844H36.249V18.9h1.225v.836H36.249v2.175h1.574v.827Z"/></g><g class="cls-3"><path class="cls-2" d="M38.025,22.74l1.315-6.572h1.282l1.315,6.572H40.825l-.26-1.517H39.421l-.268,1.517Zm1.518-2.28h.893L39.989,17.7Z"/></g><g class="cls-3"><path class="cls-2" d="M43.819,22.829a2.078,2.078,0,0,1-1.112-.259,1.441,1.441,0,0,1-.592-.747,3.344,3.344,0,0,1-.178-1.152V18.213a3.255,3.255,0,0,1,.178-1.141,1.393,1.393,0,0,1,.592-.725,2.6,2.6,0,0,1,2.235,0,1.419,1.419,0,0,1,.593.725,3.2,3.2,0,0,1,.183,1.141V20.68a3.235,3.235,0,0,1-.183,1.139,1.473,1.473,0,0,1-.593.746A2.057,2.057,0,0,1,43.819,22.829Zm0-.884a.643.643,0,0,0,.442-.13.661.661,0,0,0,.191-.357,2.389,2.389,0,0,0,.048-.495V17.937a2.338,2.338,0,0,0-.048-.5.637.637,0,0,0-.191-.344.653.653,0,0,0-.442-.126.642.642,0,0,0-.43.126.617.617,0,0,0-.2.344,2.274,2.274,0,0,0-.048.5v3.026a2.546,2.546,0,0,0,.044.495.619.619,0,0,0,.191.357A.645.645,0,0,0,43.819,21.945Z"/></g><g class="cls-3"><path class="cls-2" d="M46.277,22.74V16.168h1.2v5.745h1.59v.827Z"/></g><g class="cls-3"><path class="cls-2" d="M51.105,22.829a2.055,2.055,0,0,1-1.136-.267,1.37,1.37,0,0,1-.56-.763,4.038,4.038,0,0,1-.154-1.185V16.168h1.169v4.584a3.934,3.934,0,0,0,.04.58.824.824,0,0,0,.19.439.579.579,0,0,0,.451.166.569.569,0,0,0,.458-.166.871.871,0,0,0,.187-.439,3.546,3.546,0,0,0,.045-.58V16.168h1.16v4.446A4.038,4.038,0,0,1,52.8,21.8a1.378,1.378,0,0,1-.556.763A2.049,2.049,0,0,1,51.105,22.829Z"/></g></g></svg>