<svg id="Layer_1" data-name="Layer 1" xmlns="http://www.w3.org/2000/svg" viewBox="0 0 80 80"><defs><style>.cls-1{fill:#00bcdc;}.cls-2{fill:#fff;}.cls-3{isolation:isolate;}</style></defs><path class="cls-1" d="M80,0H0V80H80Z"/><path class="cls-2" d="M12.106,23.044c2.879,0,3.993-1.566,3.993-4.071V16.6c0-2.639-1.044-3.972-3-3.972a2.318,2.318,0,0,0-2.237,1.3h-.021V10.456c0-.973.311-1.665,1.284-1.665s1.263.572,1.263,1.574v1.072h2.476v-.861c0-2.378-.783-4.043-3.781-4.043-2.858,0-3.923,1.835-3.923,4.354V18.74C8.155,21.231,9.249,23.044,12.106,23.044Zm-1.263-6.781c.049-.9.431-1.474,1.284-1.474.932,0,1.284.571,1.284,1.615v2.809c0,1.023-.381,1.616-1.3,1.616-.9,0-1.263-.621-1.263-1.616Z"/><path class="cls-2" d="M54.734,32.344a.342.342,0,0,0-.261-.113H25.448a.367.367,0,0,0-.261.113l-.071.275,4.875,29.487a.34.34,0,0,0,.332.282h5.983l.409,4.805L34.2,67.2l5.863,5.856,5.87-5.871H43.411l.409-4.8h6.089a.328.328,0,0,0,.331-.289l4.565-29.487A.315.315,0,0,0,54.734,32.344ZM43.516,55.953a4.657,4.657,0,0,1-3.464,1.207,4.639,4.639,0,0,1-3.464-1.207,5.148,5.148,0,0,1-.642-6.272c.473-.875,3.81-5.892,4.1-6.315V43.33l.014.015.014-.015v.036c.283.43,3.627,5.44,4.093,6.315A5.161,5.161,0,0,1,43.516,55.953Zm9.208-17.406a3.616,3.616,0,0,0-2.745.169c-3.6,1.46-6.053,1.983-9.835.8-2.385-.748-4.614-2.307-7.253-1.355a14.991,14.991,0,0,1-5.362,1.214l-1.15-5.863H53.542Z"/><g class="cls-3"><g class="cls-3"><path class="cls-2" d="M22.873,13.548V8.357H24.4a1.478,1.478,0,0,1,.759.173,1.021,1.021,0,0,1,.429.5,2.072,2.072,0,0,1,.139.8,1.665,1.665,0,0,1-.174.817,1.028,1.028,0,0,1-.484.452,1.759,1.759,0,0,1-.733.141h-.513v2.307Zm.948-2.974h.359a.9.9,0,0,0,.4-.073.392.392,0,0,0,.2-.237,1.441,1.441,0,0,0,.054-.439,2.057,2.057,0,0,0-.041-.459.394.394,0,0,0-.179-.259.872.872,0,0,0-.433-.084h-.359Z"/><path class="cls-2" d="M27.48,13.618a1.619,1.619,0,0,1-.9-.211,1.08,1.08,0,0,1-.442-.6,3.177,3.177,0,0,1-.122-.936V8.357h.923v3.621a3.035,3.035,0,0,0,.032.459.637.637,0,0,0,.151.345.556.556,0,0,0,.717,0,.69.69,0,0,0,.147-.345,2.786,2.786,0,0,0,.035-.459V8.357h.917v3.512a3.177,3.177,0,0,1-.122.936,1.084,1.084,0,0,1-.439.6A1.614,1.614,0,0,1,27.48,13.618Z"/><path class="cls-2" d="M29.505,13.548V8.357h.942v2.172H31.5V8.357h.949v5.191H31.5V11.2H30.447v2.346Z"/></g><g class="cls-3"><path class="cls-2" d="M32.792,13.548,33.83,8.357h1.013l1.038,5.191H35l-.2-1.2h-.9l-.212,1.2Zm1.2-1.8h.7l-.352-2.179Z"/></g><g class="cls-3"><path class="cls-2" d="M37.489,13.618a1.527,1.527,0,0,1-.781-.182,1.153,1.153,0,0,1-.475-.536,2.273,2.273,0,0,1-.179-.865l.814-.16a2.449,2.449,0,0,0,.073.532.775.775,0,0,0,.186.356.446.446,0,0,0,.33.125.37.37,0,0,0,.327-.138.6.6,0,0,0,.1-.35.937.937,0,0,0-.154-.556,2.38,2.38,0,0,0-.41-.437l-.653-.576a1.951,1.951,0,0,1-.439-.529,1.459,1.459,0,0,1-.164-.721,1.23,1.23,0,0,1,.359-.948A1.384,1.384,0,0,1,37.4,8.3a1.45,1.45,0,0,1,.609.112.96.96,0,0,1,.388.311,1.4,1.4,0,0,1,.214.452,2.524,2.524,0,0,1,.09.534l-.807.142a2.767,2.767,0,0,0-.055-.436.6.6,0,0,0-.147-.3.415.415,0,0,0-.311-.108.391.391,0,0,0-.323.138.522.522,0,0,0-.113.342.786.786,0,0,0,.109.433,1.711,1.711,0,0,0,.314.349l.648.57a2.7,2.7,0,0,1,.547.632,1.6,1.6,0,0,1,.228.874,1.314,1.314,0,0,1-.164.66,1.163,1.163,0,0,1-.455.452A1.379,1.379,0,0,1,37.489,13.618Z"/></g><g class="cls-3"><path class="cls-2" d="M41.264,13.548,40.219,8.357h.84l.685,3.672.641-3.672h.858L42.2,13.548Z"/><path class="cls-2" d="M43.583,13.548V8.357h2.179v.666H44.531v1.494H45.5v.66h-.968V12.9h1.243v.653Z"/></g><g class="cls-3"><path class="cls-2" d="M47.441,13.618a1.531,1.531,0,0,1-.782-.182,1.149,1.149,0,0,1-.473-.536,2.272,2.272,0,0,1-.18-.865l.813-.16a2.5,2.5,0,0,0,.075.532.765.765,0,0,0,.185.356.446.446,0,0,0,.33.125.368.368,0,0,0,.326-.138.591.591,0,0,0,.1-.35.944.944,0,0,0-.154-.556,2.451,2.451,0,0,0-.41-.437l-.654-.576a1.947,1.947,0,0,1-.438-.529,1.448,1.448,0,0,1-.164-.721,1.23,1.23,0,0,1,.359-.948,1.385,1.385,0,0,1,.981-.333,1.448,1.448,0,0,1,.608.112.96.96,0,0,1,.388.311,1.377,1.377,0,0,1,.214.452,2.59,2.59,0,0,1,.09.534l-.807.142a2.767,2.767,0,0,0-.055-.436.6.6,0,0,0-.147-.3.417.417,0,0,0-.311-.108.391.391,0,0,0-.323.138.522.522,0,0,0-.113.342.794.794,0,0,0,.109.433,1.741,1.741,0,0,0,.314.349l.648.57a2.75,2.75,0,0,1,.548.632,1.613,1.613,0,0,1,.227.874,1.3,1.3,0,0,1-.164.66,1.17,1.17,0,0,1-.455.452A1.382,1.382,0,0,1,47.441,13.618Z"/></g><g class="cls-3"><path class="cls-2" d="M49.081,13.548V8.357h.936v5.191Z"/><path class="cls-2" d="M51.663,13.676V13.01a1.872,1.872,0,0,0,.34-.026.414.414,0,0,0,.208-.093.376.376,0,0,0,.106-.2,1.42,1.42,0,0,0,.032-.336v-4h.942V12.4a2.136,2.136,0,0,1-.1.72.747.747,0,0,1-.355.423,1.515,1.515,0,0,1-.715.138Z"/></g><g class="cls-3"><path class="cls-2" d="M53.624,13.548l1.038-5.191h1.013l1.038,5.191h-.878l-.2-1.2h-.9l-.212,1.2Zm1.2-1.8h.7l-.352-2.179Z"/></g><g class="cls-3"><path class="cls-2" d="M24.18,21.307a1.531,1.531,0,0,1-.782-.182,1.156,1.156,0,0,1-.474-.536,2.273,2.273,0,0,1-.179-.865l.814-.16a2.449,2.449,0,0,0,.073.532.775.775,0,0,0,.186.356.446.446,0,0,0,.33.125.37.37,0,0,0,.327-.138.6.6,0,0,0,.1-.35.937.937,0,0,0-.154-.556,2.415,2.415,0,0,0-.41-.437l-.653-.576a1.933,1.933,0,0,1-.439-.529,1.459,1.459,0,0,1-.164-.721,1.23,1.23,0,0,1,.359-.948,1.384,1.384,0,0,1,.98-.333,1.45,1.45,0,0,1,.609.112.96.96,0,0,1,.388.311,1.4,1.4,0,0,1,.214.452,2.59,2.59,0,0,1,.09.534l-.807.142a2.767,2.767,0,0,0-.055-.436.6.6,0,0,0-.147-.3.415.415,0,0,0-.311-.108.391.391,0,0,0-.323.138.522.522,0,0,0-.113.342.786.786,0,0,0,.109.433,1.711,1.711,0,0,0,.314.349l.648.57a2.7,2.7,0,0,1,.547.632,1.6,1.6,0,0,1,.228.874,1.314,1.314,0,0,1-.164.66,1.17,1.17,0,0,1-.455.452A1.382,1.382,0,0,1,24.18,21.307Z"/><path class="cls-2" d="M25.532,21.237l1.038-5.191h1.013l1.038,5.191h-.878l-.2-1.2h-.9l-.211,1.2Zm1.2-1.8h.7l-.352-2.179Z"/></g><g class="cls-3"><path class="cls-2" d="M28.948,21.237V16.046h.66l1.263,2.96v-2.96h.781v5.191h-.628l-1.269-3.1v3.1Z"/><path class="cls-2" d="M32.274,21.237V16.046h.935v5.191Z"/></g><g class="cls-3"><path class="cls-2" d="M34.337,21.237V16.745h-.826v-.7H36.1v.7h-.815v4.492Z"/></g><g class="cls-3"><path class="cls-2" d="M35.99,21.237l1.038-5.191h1.013l1.038,5.191H38.2l-.2-1.2h-.9l-.211,1.2Zm1.2-1.8h.7l-.352-2.179Z"/></g><g class="cls-3"><path class="cls-2" d="M39.142,21.237l1.038-5.191h1.012l1.038,5.191h-.877l-.206-1.2h-.9l-.212,1.2Zm1.2-1.8h.7l-.352-2.179Z"/><path class="cls-2" d="M42.507,21.237V16.046H43.75a2.747,2.747,0,0,1,.887.125,1.023,1.023,0,0,1,.551.426,1.536,1.536,0,0,1,.189.82,2.491,2.491,0,0,1-.058.565,1.065,1.065,0,0,1-.2.426.886.886,0,0,1-.381.272l.724,2.557h-.948l-.628-2.377h-.436v2.377Zm.948-2.974h.3a.993.993,0,0,0,.438-.08.464.464,0,0,0,.234-.256,1.207,1.207,0,0,0,.071-.452.99.99,0,0,0-.144-.586.643.643,0,0,0-.548-.2h-.346Z"/></g><g class="cls-3"><path class="cls-2" d="M46.429,21.237V16.745H45.6v-.7h2.588v.7h-.814v4.492Z"/><path class="cls-2" d="M48.5,21.237V16.046h.936v5.191Z"/><path class="cls-2" d="M50.043,21.237V16.046h.66l1.263,2.96v-2.96h.781v5.191h-.628l-1.268-3.1v3.1Z"/><path class="cls-2" d="M54.644,21.307a1.355,1.355,0,0,1-.814-.218,1.191,1.191,0,0,1-.433-.618,3.055,3.055,0,0,1-.131-.945V17.783a3.175,3.175,0,0,1,.129-.961,1.105,1.105,0,0,1,.451-.618,1.594,1.594,0,0,1,.893-.215,1.7,1.7,0,0,1,.847.179,1.025,1.025,0,0,1,.451.516,2.152,2.152,0,0,1,.138.816v.27h-.9v-.295a2.225,2.225,0,0,0-.035-.429.464.464,0,0,0-.14-.272.513.513,0,0,0-.343-.093.47.47,0,0,0-.362.121.576.576,0,0,0-.141.321,2.934,2.934,0,0,0-.029.436v2.172a2.081,2.081,0,0,0,.045.468.538.538,0,0,0,.167.3.507.507,0,0,0,.345.106.494.494,0,0,0,.353-.115.627.627,0,0,0,.17-.321,2.208,2.208,0,0,0,.048-.487V19.2h-.558v-.6H56.2v2.634h-.609l-.071-.513a.984.984,0,0,1-.31.42A.9.9,0,0,1,54.644,21.307Z"/><path class="cls-2" d="M56.758,21.237V16.046h.935v5.191Z"/><path class="cls-2" d="M58.29,21.237l.09-5.191h.98l.737,3.595.769-3.595h.948l.1,5.191h-.7l-.077-3.608-.737,3.608h-.571l-.75-3.62L59,21.237Z"/><path class="cls-2" d="M63.909,21.307a1.616,1.616,0,0,1-.9-.211,1.081,1.081,0,0,1-.443-.6,3.177,3.177,0,0,1-.122-.936V16.046h.923v3.621a3.146,3.146,0,0,0,.032.458.652.652,0,0,0,.151.346.556.556,0,0,0,.717,0,.69.69,0,0,0,.148-.346,2.878,2.878,0,0,0,.035-.458V16.046h.916v3.512a3.18,3.18,0,0,1-.121.936,1.089,1.089,0,0,1-.439.6A1.618,1.618,0,0,1,63.909,21.307Z"/></g><g class="cls-3"><path class="cls-2" d="M67.229,21.307a1.533,1.533,0,0,1-.783-.182,1.149,1.149,0,0,1-.473-.536,2.272,2.272,0,0,1-.18-.865l.813-.16a2.5,2.5,0,0,0,.075.532.765.765,0,0,0,.185.356.448.448,0,0,0,.33.125.367.367,0,0,0,.326-.138.591.591,0,0,0,.1-.35.944.944,0,0,0-.154-.556,2.415,2.415,0,0,0-.41-.437L66.4,18.52a1.947,1.947,0,0,1-.438-.529,1.459,1.459,0,0,1-.164-.721,1.23,1.23,0,0,1,.359-.948,1.385,1.385,0,0,1,.981-.333,1.448,1.448,0,0,1,.608.112.96.96,0,0,1,.388.311,1.4,1.4,0,0,1,.215.452,2.659,2.659,0,0,1,.089.534l-.807.142a2.767,2.767,0,0,0-.055-.436.6.6,0,0,0-.147-.3.417.417,0,0,0-.311-.108.392.392,0,0,0-.323.138.521.521,0,0,0-.112.342.794.794,0,0,0,.108.433,1.741,1.741,0,0,0,.314.349l.648.57a2.75,2.75,0,0,1,.548.632,1.613,1.613,0,0,1,.227.874,1.3,1.3,0,0,1-.164.66,1.17,1.17,0,0,1-.455.452A1.381,1.381,0,0,1,67.229,21.307Z"/></g><g class="cls-3"><path class="cls-2" d="M68.843,21.237V16.046h2.178v.666h-1.23v1.494h.968v.66h-.968v1.717h1.243v.654Z"/><path class="cls-2" d="M71.394,21.237V16.046h1.223a2.311,2.311,0,0,1,.99.173,1.007,1.007,0,0,1,.506.532,2.358,2.358,0,0,1,.151.911v1.9a2.523,2.523,0,0,1-.151.939,1.043,1.043,0,0,1-.5.557,2.079,2.079,0,0,1-.958.183Zm.948-.66h.288a.737.737,0,0,0,.468-.116.516.516,0,0,0,.173-.336,3.917,3.917,0,0,0,.032-.542V17.6a2.3,2.3,0,0,0-.045-.506.432.432,0,0,0-.186-.282.886.886,0,0,0-.455-.09h-.275Z"/></g></g></svg>