<svg id="Layer_1" data-name="Layer 1" xmlns="http://www.w3.org/2000/svg" viewBox="0 0 80 80"><defs><style>.cls-1{fill:#fdb62f;}.cls-2{fill:#fff;}.cls-3{isolation:isolate;}</style></defs><path class="cls-1" d="M80,0H0V80H80Z"/><path class="cls-2" d="M8.2,8.9h4.2L8.769,22.832h2.7L15.013,9.186v-2.5H8.2Z"/><path class="cls-2" d="M40.023,38.765A11.727,11.727,0,1,0,51.749,50.493h0A11.726,11.726,0,0,0,40.024,38.765Zm-.868,4.629a.873.873,0,0,1,1.743,0v4.029a.874.874,0,0,1-1.743,0Zm.875,13.1a6.1,6.1,0,0,1-1.806-11.925v2.272a4,4,0,1,0,3.619,0V44.572A6.1,6.1,0,0,1,40.03,56.5Z"/><path class="cls-2" d="M26.569,50.386a.981.981,0,0,0-.9-.959h-5.14a.965.965,0,0,0,0,1.926h5.137A.989.989,0,0,0,26.569,50.386Z"/><path class="cls-2" d="M60.434,50.386a.981.981,0,0,0-.9-.959H54.4a.964.964,0,0,0,0,1.926h5.136A.989.989,0,0,0,60.434,50.386Z"/><path class="cls-2" d="M40.03,36.923a.983.983,0,0,0,.96-.9V30.884a.965.965,0,0,0-1.927,0V36.02A.983.983,0,0,0,40.03,36.923Z"/><path class="cls-2" d="M40.03,70.791a.981.981,0,0,0,.96-.9V64.752a.965.965,0,0,0-1.927,0v5.136A.988.988,0,0,0,40.03,70.791Z"/><path class="cls-2" d="M28.347,43.7a.988.988,0,0,0-.3-1.284l-4.459-2.547a.965.965,0,0,0-.959,1.672l4.459,2.547A.974.974,0,0,0,28.347,43.7Z"/><path class="cls-2" d="M57.739,60.518a.985.985,0,0,0-.3-1.284L52.98,56.687a.966.966,0,0,0-.959,1.673l4.459,2.546A.975.975,0,0,0,57.739,60.518Z"/><path class="cls-2" d="M46.719,38.7A.986.986,0,0,0,48,38.4l2.547-4.452a.964.964,0,0,0-1.672-.953l-2.554,4.452A.977.977,0,0,0,46.719,38.7Z"/><path class="cls-2" d="M29.9,68.1a.988.988,0,0,0,1.284-.3l2.547-4.459a.969.969,0,0,0-1.679-.96L29.5,66.833A.994.994,0,0,0,29.9,68.1Z"/><path class="cls-2" d="M33.32,38.715a.991.991,0,0,0,.389-1.263L31.147,33a1,1,0,0,0-1.291-.31.982.982,0,0,0-.381,1.27l2.561,4.452A.976.976,0,0,0,33.32,38.715Z"/><path class="cls-2" d="M50.2,68.075a.989.989,0,0,0,.388-1.263L48.031,62.36a1,1,0,0,0-1.291-.31.981.981,0,0,0-.381,1.27l2.561,4.451A.976.976,0,0,0,50.2,68.075Z"/><path class="cls-2" d="M51.7,43.676a.988.988,0,0,0,1.263.388L57.415,41.5a.962.962,0,0,0-.959-1.665L52,42.392A.984.984,0,0,0,51.7,43.676Z"/><path class="cls-2" d="M22.343,60.561a.99.99,0,0,0,1.263.388l4.452-2.561a.963.963,0,0,0-.96-1.666l-4.452,2.562A.957.957,0,0,0,22.343,60.561Z"/><g class="cls-3"><g class="cls-3"><path class="cls-2" d="M23.9,13.462V8.97h-.827v-.7h2.589v.7h-.814v4.492Z"/></g><g class="cls-3"><path class="cls-2" d="M25.548,13.462l1.038-5.191H27.6l1.038,5.191h-.878l-.205-1.2h-.9l-.211,1.2Zm1.2-1.8h.7L27.1,9.482Z"/></g><g class="cls-3"><path class="cls-2" d="M30.245,13.532a1.531,1.531,0,0,1-.782-.182,1.151,1.151,0,0,1-.474-.536,2.273,2.273,0,0,1-.179-.865l.814-.16a2.449,2.449,0,0,0,.073.532.775.775,0,0,0,.186.356.446.446,0,0,0,.33.125.37.37,0,0,0,.327-.138.6.6,0,0,0,.1-.35.944.944,0,0,0-.154-.556,2.415,2.415,0,0,0-.41-.437l-.654-.576a1.969,1.969,0,0,1-.439-.529,1.47,1.47,0,0,1-.163-.721,1.232,1.232,0,0,1,.359-.948,1.384,1.384,0,0,1,.98-.333,1.45,1.45,0,0,1,.609.112.96.96,0,0,1,.388.311,1.407,1.407,0,0,1,.214.452,2.6,2.6,0,0,1,.09.534l-.807.142a2.782,2.782,0,0,0-.055-.436.608.608,0,0,0-.147-.3.417.417,0,0,0-.311-.108.394.394,0,0,0-.324.138A.527.527,0,0,0,29.7,9.4a.786.786,0,0,0,.109.433,1.685,1.685,0,0,0,.314.349l.648.57a2.7,2.7,0,0,1,.547.632,1.6,1.6,0,0,1,.228.874,1.314,1.314,0,0,1-.164.66,1.17,1.17,0,0,1-.455.452A1.371,1.371,0,0,1,30.245,13.532Z"/></g><g class="cls-3"><path class="cls-2" d="M31.86,13.462V8.271h.949v2.282l1.025-2.282h.9l-.993,2.32,1.1,2.871H33.9L33.026,11.1l-.217.4v1.967Z"/></g><g class="cls-3"><path class="cls-2" d="M36.486,13.532a1.621,1.621,0,0,1-.9-.211,1.08,1.08,0,0,1-.442-.6,3.177,3.177,0,0,1-.122-.936V8.271h.923v3.621a3.035,3.035,0,0,0,.032.459.645.645,0,0,0,.151.345.556.556,0,0,0,.717,0A.7.7,0,0,0,37,12.351a2.9,2.9,0,0,0,.035-.459V8.271h.916v3.512a3.18,3.18,0,0,1-.121.936,1.089,1.089,0,0,1-.439.6A1.62,1.62,0,0,1,36.486,13.532Z"/></g><g class="cls-3"><path class="cls-2" d="M38.5,13.462V8.271h.948v2.282l1.026-2.282h.9l-.993,2.32,1.1,2.871h-.942L39.665,11.1l-.218.4v1.967Z"/></g><g class="cls-3"><path class="cls-2" d="M43.049,13.532a1.635,1.635,0,0,1-.878-.205,1.134,1.134,0,0,1-.468-.589,2.624,2.624,0,0,1-.141-.91V9.887a2.537,2.537,0,0,1,.141-.9,1.107,1.107,0,0,1,.468-.574,2.066,2.066,0,0,1,1.765,0,1.125,1.125,0,0,1,.467.574,2.488,2.488,0,0,1,.145.9v1.947a2.517,2.517,0,0,1-.145.9,1.163,1.163,0,0,1-.467.59A1.626,1.626,0,0,1,43.049,13.532Zm0-.7a.5.5,0,0,0,.348-.1.509.509,0,0,0,.151-.282,1.834,1.834,0,0,0,.039-.39V9.668a1.791,1.791,0,0,0-.039-.391.49.49,0,0,0-.151-.272.515.515,0,0,0-.348-.1.507.507,0,0,0-.34.1.487.487,0,0,0-.154.272,1.794,1.794,0,0,0-.038.391v2.391a1.985,1.985,0,0,0,.035.39.49.49,0,0,0,.15.282A.507.507,0,0,0,43.049,12.834Z"/><path class="cls-2" d="M45.067,13.462V8.271h.942v2.172h1.057V8.271h.949v5.191h-.949V11.116H46.009v2.346Z"/></g><g class="cls-3"><path class="cls-2" d="M48.354,13.462l1.038-5.191H50.4l1.038,5.191h-.878l-.2-1.2h-.9l-.211,1.2Zm1.2-1.8h.7L49.9,9.482Z"/></g><g class="cls-3"><path class="cls-2" d="M51.744,13.462V8.271h.66l1.262,2.96V8.271h.782v5.191H53.82l-1.269-3.1v3.1Z"/><path class="cls-2" d="M55.045,13.462V8.271h2.178v.667H55.992v1.493h.968v.66h-.968v1.718h1.244v.653Z"/><path class="cls-2" d="M58.633,13.59v-.666a1.872,1.872,0,0,0,.34-.026.415.415,0,0,0,.207-.093.383.383,0,0,0,.106-.2,1.411,1.411,0,0,0,.032-.335v-4h.942v4.038a2.164,2.164,0,0,1-.1.72.749.749,0,0,1-.356.423,1.513,1.513,0,0,1-.714.138Z"/></g><g class="cls-3"><path class="cls-2" d="M60.593,13.462l1.038-5.191h1.013l1.038,5.191H62.8l-.205-1.2h-.9l-.211,1.2Zm1.2-1.8h.7l-.352-2.179Z"/></g><g class="cls-3"><path class="cls-2" d="M23.376,21.151V15.96H24.9a1.478,1.478,0,0,1,.759.173,1.03,1.03,0,0,1,.429.5,2.072,2.072,0,0,1,.139.8,1.676,1.676,0,0,1-.174.817,1.028,1.028,0,0,1-.484.452,1.759,1.759,0,0,1-.733.141h-.513v2.307Zm.948-2.974h.359a.893.893,0,0,0,.4-.073.39.39,0,0,0,.2-.237,1.441,1.441,0,0,0,.054-.439,2.057,2.057,0,0,0-.041-.459.394.394,0,0,0-.179-.259.875.875,0,0,0-.433-.084h-.359Z"/><path class="cls-2" d="M27.983,21.221a1.619,1.619,0,0,1-.9-.211,1.08,1.08,0,0,1-.442-.6,3.145,3.145,0,0,1-.122-.936V15.96h.923v3.621a3.035,3.035,0,0,0,.032.459.644.644,0,0,0,.15.345.557.557,0,0,0,.718,0,.7.7,0,0,0,.147-.345,2.786,2.786,0,0,0,.035-.459V15.96h.917v3.512a3.177,3.177,0,0,1-.122.936,1.084,1.084,0,0,1-.439.6A1.614,1.614,0,0,1,27.983,21.221Z"/><path class="cls-2" d="M30.008,21.151V15.96h.942v2.172h1.057V15.96h.949v5.191h-.949V18.805H30.95v2.346Z"/></g><g class="cls-3"><path class="cls-2" d="M33.3,21.151l1.038-5.191h1.013l1.038,5.191h-.878l-.2-1.2h-.9l-.211,1.2Zm1.2-1.8h.7l-.352-2.179Z"/></g><g class="cls-3"><path class="cls-2" d="M37.992,21.221a1.531,1.531,0,0,1-.782-.182,1.151,1.151,0,0,1-.474-.536,2.273,2.273,0,0,1-.179-.865l.814-.16a2.449,2.449,0,0,0,.073.532.775.775,0,0,0,.186.356.446.446,0,0,0,.33.125.37.37,0,0,0,.327-.138.6.6,0,0,0,.1-.35.937.937,0,0,0-.154-.556,2.415,2.415,0,0,0-.41-.437l-.653-.576a1.933,1.933,0,0,1-.439-.529,1.459,1.459,0,0,1-.164-.721,1.23,1.23,0,0,1,.359-.948,1.384,1.384,0,0,1,.98-.333,1.45,1.45,0,0,1,.609.112.96.96,0,0,1,.388.311,1.4,1.4,0,0,1,.214.452,2.6,2.6,0,0,1,.09.534l-.807.142a2.782,2.782,0,0,0-.055-.436.608.608,0,0,0-.147-.3.415.415,0,0,0-.311-.108.391.391,0,0,0-.323.138.522.522,0,0,0-.113.342.786.786,0,0,0,.109.433,1.711,1.711,0,0,0,.314.349l.648.57a2.7,2.7,0,0,1,.547.632,1.6,1.6,0,0,1,.228.874,1.314,1.314,0,0,1-.164.66,1.163,1.163,0,0,1-.455.452A1.371,1.371,0,0,1,37.992,21.221Z"/></g><g class="cls-3"><path class="cls-2" d="M40.972,21.151V15.96H43.15v.666H41.92V18.12h.968v.66H41.92V20.5h1.243v.653Z"/><path class="cls-2" d="M43.522,21.151V15.96h.66l1.262,2.96V15.96h.783v5.191H45.6l-1.27-3.1v3.1Z"/><path class="cls-2" d="M46.822,21.151V15.96H49v.666h-1.23V18.12h.967v.66h-.967V20.5h1.243v.653Z"/></g><g class="cls-3"><path class="cls-2" d="M49.373,21.151V15.96h1.243a2.749,2.749,0,0,1,.888.125,1.023,1.023,0,0,1,.551.426,1.538,1.538,0,0,1,.189.821,2.544,2.544,0,0,1-.057.564,1.094,1.094,0,0,1-.2.426.9.9,0,0,1-.382.272l.725,2.557h-.949l-.628-2.377h-.436v2.377Zm.948-2.974h.3a1,1,0,0,0,.439-.08.467.467,0,0,0,.234-.256,1.229,1.229,0,0,0,.07-.452.983.983,0,0,0-.143-.586.644.644,0,0,0-.548-.2h-.347Z"/></g><g class="cls-3"><path class="cls-2" d="M54.051,21.221A1.357,1.357,0,0,1,53.237,21a1.19,1.19,0,0,1-.432-.618,3.023,3.023,0,0,1-.132-.945V17.7a3.175,3.175,0,0,1,.129-.961,1.11,1.11,0,0,1,.451-.618,1.6,1.6,0,0,1,.893-.215,1.692,1.692,0,0,1,.847.18,1.019,1.019,0,0,1,.451.515,2.154,2.154,0,0,1,.138.817v.269h-.9v-.3a2.307,2.307,0,0,0-.035-.429.474.474,0,0,0-.141-.272.512.512,0,0,0-.343-.093.47.47,0,0,0-.362.121.583.583,0,0,0-.141.321,3.075,3.075,0,0,0-.029.436v2.172a2.14,2.14,0,0,0,.045.468.538.538,0,0,0,.167.3.508.508,0,0,0,.346.106.493.493,0,0,0,.352-.115.627.627,0,0,0,.17-.321,2.208,2.208,0,0,0,.048-.487v-.487H54.2v-.6h1.41v2.634H55l-.07-.513a1,1,0,0,1-.311.42A.9.9,0,0,1,54.051,21.221Z"/><path class="cls-2" d="M56.165,21.151V15.96H57.1v5.191Z"/></g><g class="cls-3"><path class="cls-2" d="M57.446,21.151l1.038-5.191H59.5l1.038,5.191h-.878l-.2-1.2h-.9l-.212,1.2Zm1.2-1.8h.7L59,17.171Z"/></g></g></svg>