<svg id="Layer_1" data-name="Layer 1" xmlns="http://www.w3.org/2000/svg" viewBox="0 0 80 80"><defs><style>.cls-1{fill:#9d293e;}.cls-2{fill:#fff;}.cls-3{isolation:isolate;}</style></defs><path class="cls-1" d="M80,0H0V80H80Z"/><path class="cls-2" d="M15.543,18.889V17.125a3.2,3.2,0,0,0-1.806-3.239A2.835,2.835,0,0,0,15.3,11.078v-.671c0-2.519-1.305-3.88-3.8-3.88-2.476,0-3.76,1.354-3.76,3.88v.671a2.871,2.871,0,0,0,1.524,2.808,3.182,3.182,0,0,0-1.785,3.239v1.764c0,2.448,1.164,4.163,4.021,4.163C14.379,23.052,15.543,21.337,15.543,18.889Zm-5.257-8.637c0-.974.332-1.545,1.214-1.545.9,0,1.235.571,1.235,1.545v1.094c0,.973-.332,1.545-1.235,1.545-.882,0-1.214-.572-1.214-1.545Zm2.547,8.926c0,.974-.359,1.665-1.333,1.665-.952,0-1.3-.691-1.3-1.665V16.56c0-.974.36-1.665,1.3-1.665.974,0,1.333.691,1.333,1.665Z"/><path class="cls-2" d="M55.18,39.358,47.045,47.1a1.354,1.354,0,0,0-.466,1.165V69.938a.47.47,0,0,0,.466.466h8.4a.47.47,0,0,0,.465-.466V39.556C55.906,39.3,55.709,38.836,55.18,39.358Z"/><path class="cls-2" d="M31.757,49.441l-8.135,7.733a1.348,1.348,0,0,0-.466,1.157V69.938a.46.46,0,0,0,.461.459h8.4a.463.463,0,0,0,.465-.459V49.631C32.483,49.377,32.286,48.9,31.757,49.441Z"/><path class="cls-2" d="M58.877,29.98l-.071-.176-.148-.064h-.049l-.064.007-6.23,1.405-.113.007-.119.063v.339l.07.071,1.425,1.418L39.468,47.161l-6.519-6.519h-.261l-1.771,1.771L20.468,52.856v.268L22.239,54.9h.268L32.822,44.579l4.727,4.727.014.022L39.334,51.1H39.6L55.61,35.089l1.5,1.489h.332l.063-.156v-.014l1.369-6.357Z"/><path class="cls-2" d="M43.51,50.8l-3.93,3.966-.254-.007L35.763,51.12c-.649-.649-.8-.12-.8.134V69.938a.464.464,0,0,0,.458.466h8.4a.466.466,0,0,0,.466-.466h0V50.944C44.293,50.689,44.088,50.217,43.51,50.8Z"/><g class="cls-3"><g class="cls-3"><path class="cls-2" d="M22.9,13.432V8.242h.936v5.19Z"/><path class="cls-2" d="M24.449,13.432V8.242h.659l1.263,2.96V8.242h.782v5.19h-.628l-1.269-3.1v3.1Z"/><path class="cls-2" d="M27.774,13.432V8.242h.936v5.19Z"/></g><g class="cls-3"><path class="cls-2" d="M29.306,13.432l.09-5.19h.98l.737,3.594.769-3.594h.948l.1,5.19h-.7l-.077-3.607-.737,3.607h-.57l-.75-3.62-.07,3.62Z"/></g><g class="cls-3"><path class="cls-2" d="M34.272,13.432l-1.044-5.19h.839l.686,3.672.641-3.672h.858l-1.044,5.19Z"/></g><g class="cls-3"><path class="cls-2" d="M36.137,13.432l1.038-5.19h1.013l1.038,5.19h-.878l-.2-1.2h-.9l-.211,1.2Zm.532-5.844V6.755h.769v.833Zm.667,4.043h.7l-.352-2.178Zm.589-4.043V6.755h.769v.833Z"/></g><g class="cls-3"><path class="cls-2" d="M39.289,13.432l1.038-5.19H41.34l1.038,5.19H41.5l-.2-1.2h-.9l-.212,1.2Zm.532-5.844V6.755h.769v.833Zm.667,4.043h.7L40.84,9.453Zm.589-4.043V6.755h.769v.833Z"/></g><g class="cls-3"><path class="cls-2" d="M42.679,13.432V8.242h1.243a2.757,2.757,0,0,1,.888.125,1.019,1.019,0,0,1,.55.425,1.54,1.54,0,0,1,.19.821,2.54,2.54,0,0,1-.058.564,1.078,1.078,0,0,1-.2.426.9.9,0,0,1-.382.272l.725,2.557h-.95l-.628-2.377h-.435v2.377Zm.948-2.974h.295a.993.993,0,0,0,.438-.08.46.46,0,0,0,.235-.255,1.239,1.239,0,0,0,.07-.453.985.985,0,0,0-.144-.586.645.645,0,0,0-.547-.2h-.347Z"/></g><g class="cls-3"><path class="cls-2" d="M46.069,13.432V8.242h.66l1.262,2.96V8.242h.782v5.19h-.627l-1.27-3.1v3.1Z"/><path class="cls-2" d="M49.369,13.432V8.242h2.179v.666H50.317V10.4h.968v.66h-.968v1.718h1.244v.653Z"/></g><g class="cls-3"><path class="cls-2" d="M53.8,13.432V8.94h-.826v-.7h2.588v.7h-.814v4.492Z"/></g><g class="cls-3"><path class="cls-2" d="M57.231,13.5a1.631,1.631,0,0,1-.877-.205,1.126,1.126,0,0,1-.468-.589,2.644,2.644,0,0,1-.141-.91V9.857a2.554,2.554,0,0,1,.141-.9,1.1,1.1,0,0,1,.468-.575,1.68,1.68,0,0,1,.877-.2,1.7,1.7,0,0,1,.888.2,1.129,1.129,0,0,1,.468.575,2.505,2.505,0,0,1,.144.9V11.8a2.546,2.546,0,0,1-.144.9,1.167,1.167,0,0,1-.468.589A1.63,1.63,0,0,1,57.231,13.5ZM56.226,7.588V6.755h.768v.833ZM57.231,12.8a.508.508,0,0,0,.35-.1.517.517,0,0,0,.15-.283,1.834,1.834,0,0,0,.039-.39V9.638a1.782,1.782,0,0,0-.039-.39.5.5,0,0,0-.15-.273.524.524,0,0,0-.35-.1.513.513,0,0,0-.339.1.49.49,0,0,0-.154.273,1.845,1.845,0,0,0-.039.39v2.391a1.982,1.982,0,0,0,.036.39.494.494,0,0,0,.151.283A.508.508,0,0,0,57.231,12.8Zm.25-5.216V6.755h.769v.833Z"/><path class="cls-2" d="M60.647,13.5a1.629,1.629,0,0,1-.877-.205,1.13,1.13,0,0,1-.468-.589,2.619,2.619,0,0,1-.142-.91V9.857a2.53,2.53,0,0,1,.142-.9,1.109,1.109,0,0,1,.468-.575,1.678,1.678,0,0,1,.877-.2,1.7,1.7,0,0,1,.887.2A1.129,1.129,0,0,1,62,8.957a2.484,2.484,0,0,1,.144.9V11.8a2.523,2.523,0,0,1-.144.9,1.167,1.167,0,0,1-.468.589A1.626,1.626,0,0,1,60.647,13.5ZM59.641,7.588V6.755h.769v.833ZM60.647,12.8A.505.505,0,0,0,61,12.7a.511.511,0,0,0,.15-.283,1.77,1.77,0,0,0,.04-.39V9.638a1.72,1.72,0,0,0-.04-.39A.491.491,0,0,0,61,8.975a.521.521,0,0,0-.349-.1.512.512,0,0,0-.339.1.491.491,0,0,0-.155.273,1.849,1.849,0,0,0-.038.39v2.391a2.064,2.064,0,0,0,.035.39.5.5,0,0,0,.151.283A.509.509,0,0,0,60.647,12.8Zm.25-5.216V6.755h.769v.833Z"/><path class="cls-2" d="M63.69,13.56v-.666a1.98,1.98,0,0,0,.34-.025.423.423,0,0,0,.208-.094.381.381,0,0,0,.107-.2,1.488,1.488,0,0,0,.031-.336v-4h.942v4.037a2.174,2.174,0,0,1-.1.721.751.751,0,0,1-.356.422,1.513,1.513,0,0,1-.714.138Z"/></g><g class="cls-3"><path class="cls-2" d="M65.652,13.432l1.038-5.19H67.7l1.038,5.19h-.878l-.2-1.2h-.9l-.212,1.2Zm1.2-1.8h.7L67.2,9.453Z"/></g><g class="cls-3"><path class="cls-2" d="M22.866,21.121l.09-5.19h.98l.737,3.594.769-3.594h.948l.1,5.19h-.7l-.077-3.607-.737,3.607H24.4l-.75-3.62-.07,3.62Z"/></g><g class="cls-3"><path class="cls-2" d="M26.8,21.121l1.038-5.19h1.013l1.038,5.19h-.878l-.205-1.2h-.9l-.211,1.2Zm1.2-1.8h.7l-.352-2.178Z"/></g><g class="cls-3"><path class="cls-2" d="M30.017,21.249v-.666a1.98,1.98,0,0,0,.34-.025.423.423,0,0,0,.208-.094.387.387,0,0,0,.106-.2,1.481,1.481,0,0,0,.032-.336v-4h.942v4.037a2.161,2.161,0,0,1-.1.72.748.748,0,0,1-.355.423,1.515,1.515,0,0,1-.715.138Z"/></g><g class="cls-3"><path class="cls-2" d="M31.978,21.121l1.038-5.19h1.013l1.038,5.19h-.878l-.2-1.2h-.9l-.212,1.2Zm1.2-1.8h.7l-.352-2.178Z"/></g><g class="cls-3"><path class="cls-2" d="M35.368,21.121v-5.19h.66l1.263,2.96v-2.96h.781v5.19h-.628l-1.269-3.1v3.1Z"/><path class="cls-2" d="M38.668,21.121v-5.19h1.224a2.3,2.3,0,0,1,.99.173,1.009,1.009,0,0,1,.507.532,2.392,2.392,0,0,1,.15.91v1.9a2.566,2.566,0,0,1-.15.939,1.055,1.055,0,0,1-.5.557,2.075,2.075,0,0,1-.958.183Zm.949-.66h.288a.744.744,0,0,0,.468-.115.514.514,0,0,0,.173-.336,3.927,3.927,0,0,0,.032-.542V17.481a2.288,2.288,0,0,0-.045-.505.435.435,0,0,0-.186-.283.885.885,0,0,0-.455-.089h-.275Z"/><path class="cls-2" d="M43.468,21.191a1.623,1.623,0,0,1-.9-.211,1.076,1.076,0,0,1-.442-.6,3.175,3.175,0,0,1-.121-.936V15.931h.923v3.62a3.039,3.039,0,0,0,.031.459.641.641,0,0,0,.151.345.453.453,0,0,0,.356.131.447.447,0,0,0,.361-.131.7.7,0,0,0,.148-.345,2.9,2.9,0,0,0,.035-.459v-3.62h.917v3.511a3.173,3.173,0,0,1-.122.936,1.085,1.085,0,0,1-.439.6A1.619,1.619,0,0,1,43.468,21.191Z"/></g><g class="cls-3"><path class="cls-2" d="M46.787,21.191a1.53,1.53,0,0,1-.781-.182,1.15,1.15,0,0,1-.475-.535,2.3,2.3,0,0,1-.179-.866l.814-.16a2.449,2.449,0,0,0,.073.532.775.775,0,0,0,.186.356.448.448,0,0,0,.33.125.37.37,0,0,0,.327-.138.6.6,0,0,0,.1-.349.94.94,0,0,0-.154-.557,2.38,2.38,0,0,0-.41-.437l-.653-.576a1.973,1.973,0,0,1-.44-.529,1.467,1.467,0,0,1-.163-.721,1.232,1.232,0,0,1,.359-.948,1.384,1.384,0,0,1,.98-.333,1.458,1.458,0,0,1,.61.112.965.965,0,0,1,.387.311,1.407,1.407,0,0,1,.214.452,2.6,2.6,0,0,1,.09.534l-.807.142a2.789,2.789,0,0,0-.054-.436.61.61,0,0,0-.148-.3.411.411,0,0,0-.31-.109.4.4,0,0,0-.325.138.53.53,0,0,0-.112.343.776.776,0,0,0,.11.432,1.649,1.649,0,0,0,.313.349l.647.57a2.68,2.68,0,0,1,.548.632,1.6,1.6,0,0,1,.228.874,1.323,1.323,0,0,1-.163.66,1.176,1.176,0,0,1-.455.452A1.375,1.375,0,0,1,46.787,21.191Z"/></g><g class="cls-3"><path class="cls-2" d="M48.4,21.121v-5.19h.949v2.281l1.025-2.281h.9l-.993,2.319,1.1,2.871h-.943l-.871-2.364-.217.4v1.967Z"/></g><g class="cls-3"><path class="cls-2" d="M51.354,21.121l1.039-5.19h1.012l1.038,5.19h-.878l-.2-1.2h-.9l-.211,1.2Zm1.2-1.8h.7l-.353-2.178Z"/><path class="cls-2" d="M56.026,21.191a1.53,1.53,0,0,1-.781-.182,1.143,1.143,0,0,1-.474-.535,2.3,2.3,0,0,1-.18-.866l.814-.16a2.446,2.446,0,0,0,.074.532.775.775,0,0,0,.185.356.448.448,0,0,0,.33.125.37.37,0,0,0,.327-.138.589.589,0,0,0,.1-.349.947.947,0,0,0-.153-.557,2.451,2.451,0,0,0-.41-.437L55.2,18.4a1.969,1.969,0,0,1-.439-.529,1.456,1.456,0,0,1-.163-.721,1.231,1.231,0,0,1,.358-.948,1.385,1.385,0,0,1,.981-.333,1.453,1.453,0,0,1,.609.112.975.975,0,0,1,.388.311,1.405,1.405,0,0,1,.213.452,2.535,2.535,0,0,1,.09.534l-.806.142a2.907,2.907,0,0,0-.055-.436.609.609,0,0,0-.147-.3.413.413,0,0,0-.311-.109.393.393,0,0,0-.324.138.53.53,0,0,0-.113.343.785.785,0,0,0,.11.432,1.677,1.677,0,0,0,.313.349l.648.57a2.7,2.7,0,0,1,.548.632,1.613,1.613,0,0,1,.227.874,1.323,1.323,0,0,1-.163.66,1.17,1.17,0,0,1-.455.452A1.372,1.372,0,0,1,56.026,21.191Z"/></g><g class="cls-3"><path class="cls-2" d="M58.487,21.121l-1.044-5.19h.839l.686,3.672.64-3.672h.86l-1.045,5.19Z"/></g></g></svg>