<svg id="Layer_1" data-name="Layer 1" xmlns="http://www.w3.org/2000/svg" viewBox="0 0 80 80"><defs><style>.cls-1{fill:#f26339;}.cls-2{fill:#fff;}.cls-3{isolation:isolate;}</style></defs><path class="cls-1" d="M80,0H0V80H80Z"/><path class="cls-2" d="M14.654,10.767c0-2.5-1.093-4.3-3.951-4.3-2.878,0-3.993,1.567-3.993,4.065v2.377c0,2.639,1.044,3.973,3,3.973a2.324,2.324,0,0,0,2.237-1.3h.021v3.471c0,.974-.381,1.665-1.355,1.665S9.28,20.147,9.28,19.152v-1.08H6.8v.854c0,2.378.853,4.043,3.852,4.043,2.85,0,3.993-1.834,3.993-4.353v-7.84Zm-2.688,2.47c-.049.9-.43,1.475-1.284,1.475-.924,0-1.284-.572-1.284-1.616V10.288c0-1.023.381-1.616,1.3-1.616.9,0,1.263.614,1.263,1.616Z"/><path class="cls-2" d="M60.436,52.588,50.925,47.1V36.119a.65.65,0,0,0-.324-.564l-9.828-5.673a.664.664,0,0,0-.649,0l-9.836,5.673a.657.657,0,0,0-.324.564V47.1l-9.51,5.49a.654.654,0,0,0-.325.565v11.35a.648.648,0,0,0,.325.565l9.834,5.68a.666.666,0,0,0,.65,0l9.51-5.49,9.511,5.49a.664.664,0,0,0,.649,0l9.835-5.68a.665.665,0,0,0,.324-.565V53.145A.666.666,0,0,0,60.436,52.588ZM39.792,63.376,31.9,58.825l7.888-4.558Zm9.186-15.9L41.09,52.023V42.914Zm-9.186,4.551L31.9,47.472l7.888-4.558Zm1.947,1.122,8.53-4.925,8.537,4.925-8.537,4.932Zm7.888-6.8L41.746,41.8l7.881-4.551ZM39.15,41.792l-7.888,4.551v-9.1ZM29.964,69.057l-8.537-4.925V54.267L29.964,59.2Zm1.3,0v-9.1l7.888,4.551Zm28.2-4.925-8.537,4.925V59.2l8.537-4.932Z"/><g class="cls-3"><g class="cls-3"><path class="cls-2" d="M23.555,13.465V9.342H22.8V8.7h2.376v.642h-.747v4.123Z"/></g><g class="cls-3"><path class="cls-2" d="M26.7,13.529a1.507,1.507,0,0,1-.806-.187,1.05,1.05,0,0,1-.43-.542,2.438,2.438,0,0,1-.129-.835V10.183a2.363,2.363,0,0,1,.129-.827,1.016,1.016,0,0,1,.43-.526,1.884,1.884,0,0,1,1.62,0,1.036,1.036,0,0,1,.43.526,2.314,2.314,0,0,1,.132.827v1.788a2.339,2.339,0,0,1-.132.826,1.087,1.087,0,0,1-.43.542A1.5,1.5,0,0,1,26.7,13.529ZM25.778,8.1V7.336h.706V8.1Zm.924,4.788a.46.46,0,0,0,.32-.095.472.472,0,0,0,.139-.259,1.739,1.739,0,0,0,.035-.358v-2.2a1.691,1.691,0,0,0-.035-.358.456.456,0,0,0-.139-.25.47.47,0,0,0-.32-.091.463.463,0,0,0-.312.091.441.441,0,0,0-.141.25,1.624,1.624,0,0,0-.036.358v2.2a1.817,1.817,0,0,0,.033.358.442.442,0,0,0,.138.259A.466.466,0,0,0,26.7,12.889ZM26.931,8.1V7.336h.706V8.1Z"/><path class="cls-2" d="M29.843,13.529a1.507,1.507,0,0,1-.806-.187,1.05,1.05,0,0,1-.43-.542,2.438,2.438,0,0,1-.129-.835V10.183a2.363,2.363,0,0,1,.129-.827,1.016,1.016,0,0,1,.43-.526,1.884,1.884,0,0,1,1.62,0,1.031,1.031,0,0,1,.43.526,2.314,2.314,0,0,1,.132.827v1.788a2.339,2.339,0,0,1-.132.826,1.082,1.082,0,0,1-.43.542A1.5,1.5,0,0,1,29.843,13.529ZM28.919,8.1V7.336h.706V8.1Zm.924,4.788a.465.465,0,0,0,.321-.095.478.478,0,0,0,.138-.259,1.739,1.739,0,0,0,.035-.358v-2.2a1.691,1.691,0,0,0-.035-.358.461.461,0,0,0-.138-.25.475.475,0,0,0-.321-.091.467.467,0,0,0-.312.091.447.447,0,0,0-.141.25,1.624,1.624,0,0,0-.036.358v2.2a1.817,1.817,0,0,0,.033.358.448.448,0,0,0,.138.259A.466.466,0,0,0,29.843,12.889ZM30.072,8.1V7.336h.706V8.1Z"/><path class="cls-2" d="M32.889,13.529a1.4,1.4,0,0,1-.717-.167,1.052,1.052,0,0,1-.436-.491,2.1,2.1,0,0,1-.164-.794l.747-.147a2.347,2.347,0,0,0,.067.488.706.706,0,0,0,.171.326.41.41,0,0,0,.3.115.339.339,0,0,0,.3-.127.544.544,0,0,0,.088-.32.868.868,0,0,0-.141-.512,2.231,2.231,0,0,0-.377-.4l-.6-.529a1.8,1.8,0,0,1-.4-.486,1.319,1.319,0,0,1-.15-.661,1.132,1.132,0,0,1,.329-.871,1.27,1.27,0,0,1,.9-.306,1.348,1.348,0,0,1,.559.1.9.9,0,0,1,.356.286,1.286,1.286,0,0,1,.2.414A2.41,2.41,0,0,1,34,9.941l-.741.13a2.611,2.611,0,0,0-.05-.4.564.564,0,0,0-.135-.276.38.38,0,0,0-.286-.1.362.362,0,0,0-.3.126.484.484,0,0,0-.1.314.723.723,0,0,0,.1.4,1.579,1.579,0,0,0,.288.32l.595.524a2.5,2.5,0,0,1,.5.579,1.479,1.479,0,0,1,.208.8,1.218,1.218,0,0,1-.149.606,1.089,1.089,0,0,1-.418.415A1.275,1.275,0,0,1,32.889,13.529Z"/><path class="cls-2" d="M34.9,13.465V9.342h-.758V8.7h2.376v.642h-.748v4.123Z"/><path class="cls-2" d="M38.089,13.529a1.478,1.478,0,0,1-.823-.194.992.992,0,0,1-.407-.553,2.921,2.921,0,0,1-.111-.858V8.7H37.6v3.323a2.8,2.8,0,0,0,.029.421.59.59,0,0,0,.139.318.508.508,0,0,0,.658,0,.636.636,0,0,0,.136-.318,2.666,2.666,0,0,0,.032-.421V8.7h.841v3.224a2.885,2.885,0,0,1-.112.858,1,1,0,0,1-.4.553A1.483,1.483,0,0,1,38.089,13.529Z"/></g><g class="cls-3"><path class="cls-2" d="M41.112,13.529a1.4,1.4,0,0,1-.716-.167,1.052,1.052,0,0,1-.436-.491,2.114,2.114,0,0,1-.165-.794l.747-.147a2.343,2.343,0,0,0,.068.488.7.7,0,0,0,.171.326.409.409,0,0,0,.3.115.338.338,0,0,0,.3-.127.545.545,0,0,0,.089-.32.861.861,0,0,0-.142-.512,2.259,2.259,0,0,0-.376-.4l-.6-.529a1.808,1.808,0,0,1-.4-.486,1.33,1.33,0,0,1-.15-.661,1.129,1.129,0,0,1,.33-.871,1.268,1.268,0,0,1,.9-.306,1.345,1.345,0,0,1,.559.1.9.9,0,0,1,.356.286,1.288,1.288,0,0,1,.2.414,2.41,2.41,0,0,1,.083.491l-.742.13a2.5,2.5,0,0,0-.049-.4A.574.574,0,0,0,41.3,9.4a.379.379,0,0,0-.285-.1.361.361,0,0,0-.3.126.479.479,0,0,0-.1.314.723.723,0,0,0,.1.4,1.549,1.549,0,0,0,.288.32l.594.524a2.473,2.473,0,0,1,.5.579,1.479,1.479,0,0,1,.209.8,1.208,1.208,0,0,1-.15.606,1.076,1.076,0,0,1-.418.415A1.27,1.27,0,0,1,41.112,13.529Z"/></g><g class="cls-3"><path class="cls-2" d="M42.607,14.265l-.082-.294A.59.59,0,0,0,42.8,13.8a.48.48,0,0,0,.111-.338h-.423v-.794h.783V13.4a.945.945,0,0,1-.165.59A.783.783,0,0,1,42.607,14.265Z"/><path class="cls-2" d="M44.96,13.465V8.7h.859v4.765Z"/><path class="cls-2" d="M46.384,13.465V8.7h.606l1.158,2.718V8.7h.718v4.765H48.29l-1.165-2.847v2.847Z"/><path class="cls-2" d="M49.419,13.465V8.7h.606l1.159,2.718V8.7H51.9v4.765h-.576L50.16,10.618v2.847Z"/></g><g class="cls-3"><path class="cls-2" d="M53.719,13.529a1.51,1.51,0,0,1-.806-.187,1.05,1.05,0,0,1-.43-.542,2.438,2.438,0,0,1-.129-.835V10.183a2.363,2.363,0,0,1,.129-.827,1.016,1.016,0,0,1,.43-.526,1.884,1.884,0,0,1,1.62,0,1.031,1.031,0,0,1,.43.526,2.291,2.291,0,0,1,.133.827v1.788a2.315,2.315,0,0,1-.133.826,1.082,1.082,0,0,1-.43.542A1.5,1.5,0,0,1,53.719,13.529Zm0-.64a.465.465,0,0,0,.321-.095.478.478,0,0,0,.138-.259,1.739,1.739,0,0,0,.035-.358v-2.2a1.691,1.691,0,0,0-.035-.358.461.461,0,0,0-.138-.25.475.475,0,0,0-.321-.091.467.467,0,0,0-.312.091.453.453,0,0,0-.141.25,1.624,1.624,0,0,0-.036.358v2.2a1.817,1.817,0,0,0,.033.358.448.448,0,0,0,.138.259A.466.466,0,0,0,53.719,12.889Z"/></g><g class="cls-3"><path class="cls-2" d="M56.267,13.465,55.308,8.7h.77l.629,3.371L57.3,8.7h.788l-.959,4.765Z"/></g><g class="cls-3"><path class="cls-2" d="M57.979,13.465,58.932,8.7h.929l.952,4.765h-.8l-.189-1.1H58.99l-.194,1.1Zm1.1-1.653h.647l-.324-2Z"/></g><g class="cls-3"><path class="cls-2" d="M61.366,13.465V9.342h-.759V8.7h2.376v.642h-.747v4.123Z"/></g><g class="cls-3"><path class="cls-2" d="M64.442,13.529a1.4,1.4,0,0,1-.716-.167,1.052,1.052,0,0,1-.436-.491,2.094,2.094,0,0,1-.165-.794l.747-.147a2.347,2.347,0,0,0,.067.488.725.725,0,0,0,.171.326.413.413,0,0,0,.3.115.338.338,0,0,0,.3-.127.545.545,0,0,0,.089-.32.861.861,0,0,0-.142-.512,2.259,2.259,0,0,0-.376-.4l-.6-.529a1.808,1.808,0,0,1-.4-.486,1.33,1.33,0,0,1-.15-.661,1.129,1.129,0,0,1,.33-.871,1.268,1.268,0,0,1,.9-.306,1.342,1.342,0,0,1,.559.1.889.889,0,0,1,.356.286,1.288,1.288,0,0,1,.2.414,2.41,2.41,0,0,1,.083.491l-.742.13a2.5,2.5,0,0,0-.049-.4.574.574,0,0,0-.136-.276.379.379,0,0,0-.285-.1.36.36,0,0,0-.3.126.485.485,0,0,0-.1.314.723.723,0,0,0,.1.4,1.521,1.521,0,0,0,.288.32l.594.524a2.473,2.473,0,0,1,.5.579,1.479,1.479,0,0,1,.209.8,1.208,1.208,0,0,1-.15.606,1.076,1.076,0,0,1-.418.415A1.27,1.27,0,0,1,64.442,13.529Z"/></g><g class="cls-3"><path class="cls-2" d="M65.949,13.465V8.7h.86v4.765Z"/><path class="cls-2" d="M68.667,13.529a1.507,1.507,0,0,1-.806-.187,1.043,1.043,0,0,1-.429-.542,2.437,2.437,0,0,1-.13-.835V10.183a2.361,2.361,0,0,1,.13-.827,1.01,1.01,0,0,1,.429-.526,1.884,1.884,0,0,1,1.62,0,1.031,1.031,0,0,1,.43.526,2.314,2.314,0,0,1,.132.827v1.788a2.339,2.339,0,0,1-.132.826,1.082,1.082,0,0,1-.43.542A1.5,1.5,0,0,1,68.667,13.529Zm0-.64a.46.46,0,0,0,.32-.095.472.472,0,0,0,.139-.259,1.739,1.739,0,0,0,.035-.358v-2.2a1.691,1.691,0,0,0-.035-.358.456.456,0,0,0-.139-.25.47.47,0,0,0-.32-.091.465.465,0,0,0-.312.091.441.441,0,0,0-.141.25,1.627,1.627,0,0,0-.035.358v2.2a1.819,1.819,0,0,0,.032.358.438.438,0,0,0,.139.259A.46.46,0,0,0,68.667,12.889Z"/><path class="cls-2" d="M71.808,13.529A1.51,1.51,0,0,1,71,13.342a1.05,1.05,0,0,1-.43-.542,2.438,2.438,0,0,1-.129-.835V10.183a2.363,2.363,0,0,1,.129-.827A1.016,1.016,0,0,1,71,8.83a1.884,1.884,0,0,1,1.62,0,1.031,1.031,0,0,1,.43.526,2.291,2.291,0,0,1,.133.827v1.788a2.315,2.315,0,0,1-.133.826,1.082,1.082,0,0,1-.43.542A1.5,1.5,0,0,1,71.808,13.529Zm0-.64a.465.465,0,0,0,.321-.095.478.478,0,0,0,.138-.259,1.739,1.739,0,0,0,.035-.358v-2.2a1.691,1.691,0,0,0-.035-.358.461.461,0,0,0-.138-.25.475.475,0,0,0-.321-.091.465.465,0,0,0-.312.091.46.46,0,0,0-.142.25,1.691,1.691,0,0,0-.035.358v2.2a1.817,1.817,0,0,0,.033.358.448.448,0,0,0,.138.259A.466.466,0,0,0,71.808,12.889Z"/><path class="cls-2" d="M73.654,13.465V8.7h.607l1.158,2.718V8.7h.718v4.765h-.576L74.4,10.618v2.847Z"/></g><g class="cls-3"><path class="cls-2" d="M22.777,20.641V20.03a1.694,1.694,0,0,0,.313-.024.377.377,0,0,0,.19-.085.354.354,0,0,0,.1-.182,1.378,1.378,0,0,0,.029-.309V15.759h.864v3.706a1.99,1.99,0,0,1-.093.661.694.694,0,0,1-.326.389,1.4,1.4,0,0,1-.657.126Z"/></g><g class="cls-3"><path class="cls-2" d="M24.578,20.524l.952-4.765h.93l.953,4.765h-.806l-.189-1.1h-.829l-.194,1.1Zm1.1-1.653h.647l-.324-2Z"/></g><g class="cls-3"><path class="cls-2" d="M29.419,20.524V16.4h-.758v-.642h2.376V16.4H30.29v4.123Z"/></g><g class="cls-3"><path class="cls-2" d="M30.937,20.524l.952-4.765h.93l.952,4.765h-.8l-.189-1.1h-.829l-.194,1.1Zm1.1-1.653h.647l-.324-2Z"/></g><g class="cls-3"><path class="cls-2" d="M34.049,20.524V15.759H35.19a2.469,2.469,0,0,1,.814.116.934.934,0,0,1,.506.39,1.408,1.408,0,0,1,.174.753,2.331,2.331,0,0,1-.053.518.985.985,0,0,1-.179.391.811.811,0,0,1-.35.25l.664,2.347H35.9l-.577-2.183h-.4v2.183Zm.87-2.73h.271a.928.928,0,0,0,.4-.073.432.432,0,0,0,.215-.235,1.134,1.134,0,0,0,.064-.415.908.908,0,0,0-.132-.538.594.594,0,0,0-.5-.179h-.318Z"/></g><g class="cls-3"><path class="cls-2" d="M37.185,20.524V15.759h.858v4.765Z"/><path class="cls-2" d="M39.808,20.588a1.405,1.405,0,0,1-.718-.167,1.057,1.057,0,0,1-.436-.491,2.134,2.134,0,0,1-.164-.794l.747-.147a2.343,2.343,0,0,0,.068.488.688.688,0,0,0,.171.326.408.408,0,0,0,.3.115.34.34,0,0,0,.3-.126.548.548,0,0,0,.088-.321.868.868,0,0,0-.141-.512,2.2,2.2,0,0,0-.377-.4l-.6-.529a1.789,1.789,0,0,1-.4-.486,1.33,1.33,0,0,1-.15-.661,1.128,1.128,0,0,1,.329-.871,1.272,1.272,0,0,1,.9-.3,1.347,1.347,0,0,1,.558.1.889.889,0,0,1,.356.286,1.268,1.268,0,0,1,.2.414,2.493,2.493,0,0,1,.082.491l-.741.13a2.611,2.611,0,0,0-.05-.4.548.548,0,0,0-.135-.276.38.38,0,0,0-.286-.1.362.362,0,0,0-.3.126.484.484,0,0,0-.1.314.729.729,0,0,0,.1.4,1.609,1.609,0,0,0,.288.32l.595.524a2.5,2.5,0,0,1,.5.579,1.479,1.479,0,0,1,.209.8,1.218,1.218,0,0,1-.15.606,1.083,1.083,0,0,1-.418.415A1.258,1.258,0,0,1,39.808,20.588Z"/><path class="cls-2" d="M41.819,20.524V16.4h-.758v-.642h2.376V16.4h-.748v4.123Z"/><path class="cls-2" d="M45.007,20.588a1.48,1.48,0,0,1-.823-.194.993.993,0,0,1-.407-.553,2.921,2.921,0,0,1-.111-.858V15.759h.847v3.324a2.789,2.789,0,0,0,.029.42.59.59,0,0,0,.139.318.509.509,0,0,0,.659,0,.644.644,0,0,0,.135-.318,2.653,2.653,0,0,0,.032-.42V15.759h.842v3.224a2.883,2.883,0,0,1-.113.858.994.994,0,0,1-.4.553A1.481,1.481,0,0,1,45.007,20.588Z"/></g></g></svg>