<?xml version="1.0" encoding="UTF-8"?>
<svg id="Layer_2" data-name="Layer 2" xmlns="http://www.w3.org/2000/svg" viewBox="0 0 72.11 72.11">
  <defs>
    <style>
      .cls-1 {
        fill: #fff;
      }

      .cls-1, .cls-2 {
        stroke-width: 0px;
      }

      .cls-2 {
        fill: #022a52;
      }
    </style>
  </defs>
  <g id="Layer_1-2" data-name="Layer 1">
    <g>
      <circle class="cls-1" cx="36.05" cy="36.05" r="36.05"/>
      <path class="cls-2" d="m52.24,19.7c-.47-1.38-1.78-2.36-3.32-2.36h-25.73c-1.54,0-2.83.98-3.32,2.36l-4.61,13.26c-.16.49-.26,1.01-.26,1.54v16.75c0,1.94,1.57,3.51,3.51,3.51s3.51-1.57,3.51-3.51v-1.17h28.07v1.17c0,1.92,1.57,3.51,3.51,3.51s3.51-1.57,3.51-3.51v-16.75c0-.51-.09-1.05-.26-1.54l-4.61-13.26Zm-29.05,23.37c-1.94,0-3.51-1.57-3.51-3.51s1.57-3.51,3.51-3.51,3.51,1.57,3.51,3.51-1.57,3.51-3.51,3.51Zm25.73,0c-1.94,0-3.51-1.57-3.51-3.51s1.57-3.51,3.51-3.51,3.51,1.57,3.51,3.51-1.57,3.51-3.51,3.51Zm-29.24-11.7l2.97-8.94c.33-.94,1.22-1.59,2.22-1.59h22.36c1.01,0,1.89.66,2.22,1.59l2.97,8.94H19.68Z"/>
    </g>
  </g>
</svg>