<?xml version="1.0" encoding="UTF-8"?>
<svg id="Layer_2" data-name="Layer 2" xmlns="http://www.w3.org/2000/svg" viewBox="0 0 72.11 72.11">
  <defs>
    <style>
      .cls-1 {
        stroke: #022a52;
        stroke-miterlimit: 10;
        stroke-width: 3.37px;
      }

      .cls-1, .cls-2 {
        fill: #fff;
      }

      .cls-2, .cls-3 {
        stroke-width: 0px;
      }

      .cls-3 {
        fill: #022a52;
      }
    </style>
  </defs>
  <g id="Layer_1-2" data-name="Layer 1">
    <g>
      <circle class="cls-2" cx="36.05" cy="36.05" r="36.05"/>
      <g>
        <g>
          <line class="cls-1" x1="17.44" y1="37.21" x2="48.93" y2="21.86"/>
          <path class="cls-3" d="m16.97,23.32c-2.18,0-3.94,1.76-3.94,3.94,0,2.34,2.49,5.58,3.51,6.81.22.27.64.27.86,0,1.02-1.23,3.5-4.46,3.5-6.81,0-2.18-1.76-3.94-3.94-3.94Zm0,5.34c-.78,0-1.41-.63-1.41-1.41s.63-1.41,1.41-1.41,1.41.63,1.41,1.41-.63,1.41-1.41,1.41Z"/>
          <circle class="cls-3" cx="16.97" cy="37.53" r="3.26"/>
          <path class="cls-3" d="m49.59,7.6c-2.18,0-3.94,1.76-3.94,3.94,0,2.34,2.49,5.58,3.51,6.81.22.27.64.27.86,0,1.02-1.23,3.5-4.46,3.5-6.81,0-2.18-1.76-3.94-3.94-3.94Zm0,5.34c-.78,0-1.41-.63-1.41-1.41s.63-1.41,1.41-1.41,1.41.63,1.41,1.41-.63,1.41-1.41,1.41Z"/>
          <circle class="cls-3" cx="49.59" cy="21.81" r="3.26"/>
        </g>
        <g>
          <line class="cls-1" x1="33.53" y1="53.8" x2="48.93" y2="45.69"/>
          <path class="cls-3" d="m48.99,30.89c-2.17.1-3.85,1.94-3.75,4.11.11,2.34,2.73,5.46,3.81,6.64.24.26.65.24.86-.04.96-1.28,3.3-4.62,3.19-6.96-.1-2.17-1.94-3.85-4.11-3.75Zm.24,5.34c-.78.03-1.43-.57-1.47-1.34-.03-.78.57-1.43,1.34-1.47s1.43.57,1.47,1.34-.57,1.43-1.34,1.47Z"/>
          <circle class="cls-3" cx="49.63" cy="45.09" r="3.26"/>
          <path class="cls-3" d="m32.2,40.4c-2.17.1-3.85,1.94-3.75,4.11.11,2.34,2.73,5.46,3.81,6.64.24.26.65.24.86-.04.96-1.28,3.3-4.62,3.19-6.96-.1-2.17-1.94-3.85-4.11-3.75Zm.24,5.34c-.78.03-1.43-.57-1.47-1.34-.03-.78.57-1.43,1.34-1.47s1.43.57,1.47,1.34-.57,1.43-1.34,1.47Z"/>
          <circle class="cls-3" cx="32.84" cy="54.59" r="3.26"/>
        </g>
      </g>
    </g>
  </g>
</svg>