<?xml version="1.0" encoding="UTF-8"?>
<svg id="Layer_2" data-name="Layer 2" xmlns="http://www.w3.org/2000/svg" viewBox="0 0 72.11 72.11">
  <defs>
    <style>
      .cls-1 {
        fill: #fff;
      }

      .cls-1, .cls-2 {
        stroke-width: 0px;
      }

      .cls-2 {
        fill: #022a52;
      }
    </style>
  </defs>
  <g id="Layer_1-2" data-name="Layer 1">
    <g>
      <circle class="cls-1" cx="36.05" cy="36.05" r="36.05"/>
      <path class="cls-2" d="m42.11,25.24c1.9,0,3.46-1.56,3.46-3.46s-1.56-3.46-3.46-3.46-3.46,1.56-3.46,3.46,1.56,3.46,3.46,3.46Zm-18.17,11.25c-4.85,0-8.65,3.81-8.65,8.65s3.81,8.65,8.65,8.65,8.65-3.81,8.65-8.65-3.81-8.65-8.65-8.65Zm0,14.71c-3.29,0-6.06-2.77-6.06-6.06s2.77-6.06,6.06-6.06,6.06,2.77,6.06,6.06-2.77,6.06-6.06,6.06Zm10.04-17.31l4.15-4.15,1.38,1.38c1.83,1.83,4.12,3.08,6.85,3.5,1.04.16,1.97-.67,1.97-1.73,0-.85-.64-1.57-1.47-1.71-1.92-.31-3.5-1.23-4.76-2.47l-3.29-3.29c-.87-.69-1.73-1.04-2.77-1.04s-1.9.35-2.42,1.04l-4.85,4.85c-.69.69-1.04,1.56-1.04,2.42,0,1.04.35,1.9,1.04,2.42l5.54,4.85v6.92c0,.95.78,1.73,1.73,1.73s1.73-.78,1.73-1.73v-7.61c0-.9-.35-1.75-.95-2.39l-2.86-2.98Zm14.19,2.6c-4.85,0-8.65,3.81-8.65,8.65s3.81,8.65,8.65,8.65,8.65-3.81,8.65-8.65-3.81-8.65-8.65-8.65Zm0,14.71c-3.29,0-6.06-2.77-6.06-6.06s2.77-6.06,6.06-6.06,6.06,2.77,6.06,6.06-2.77,6.06-6.06,6.06Z"/>
    </g>
  </g>
</svg>