<?xml version="1.0" encoding="UTF-8"?>
<svg id="Layer_2" data-name="Layer 2" xmlns="http://www.w3.org/2000/svg" viewBox="0 0 72.11 72.11">
  <defs>
    <style>
      .cls-1 {
        fill: #fff;
      }

      .cls-1, .cls-2 {
        stroke-width: 0px;
      }

      .cls-2 {
        fill: #022a52;
      }
    </style>
  </defs>
  <g id="Layer_1-2" data-name="Layer 1">
    <g>
      <circle class="cls-1" cx="36.05" cy="36.05" r="36.05"/>
      <g>
        <path class="cls-2" d="m59.76,25.34l-6.87-6.87c-.79-.79-2.12-.25-2.12.86v4.41H16.27c-1.36,0-2.46,1.11-2.46,2.46s1.11,2.46,2.46,2.46h34.5v4.41c0,1.11,1.33,1.65,2.09.86l6.87-6.87c.49-.47.49-1.26.02-1.72Z"/>
        <path class="cls-2" d="m12.2,46.77l6.87,6.87c.79.79,2.12.25,2.12-.86v-4.41h34.5c1.36,0,2.46-1.11,2.46-2.46s-1.11-2.46-2.46-2.46H21.2v-4.41c0-1.11-1.33-1.65-2.09-.86l-6.87,6.87c-.49.47-.49,1.26-.02,1.72Z"/>
      </g>
    </g>
  </g>
</svg>