<?xml version="1.0" encoding="UTF-8"?>
<svg id="Layer_2" data-name="Layer 2" xmlns="http://www.w3.org/2000/svg" viewBox="0 0 72.11 72.11">
  <defs>
    <style>
      .cls-1 {
        fill: #fff;
      }

      .cls-1, .cls-2 {
        stroke-width: 0px;
      }

      .cls-2 {
        fill: #022a52;
      }
    </style>
  </defs>
  <g id="Layer_1-2" data-name="Layer 1">
    <g>
      <circle class="cls-1" cx="36.05" cy="36.05" r="36.05"/>
      <path class="cls-2" d="m50.43,52.22c-2.32,0-4.63-.74-6.72-2.05-.29-.18-.66-.18-.95,0-4.15,2.64-9.27,2.64-13.42,0-.29-.18-.66-.18-.95,0-2.07,1.31-4.38,2.05-6.7,2.05h-1.8c-.99,0-1.8.81-1.8,1.8s.81,1.8,1.8,1.8h1.8c2.48,0,4.92-.63,7.18-1.78,4.53,2.32,9.84,2.32,14.37,0,2.26,1.17,4.71,1.78,7.18,1.78h1.8c.99,0,1.8-.81,1.8-1.8s-.81-1.8-1.8-1.8h-1.8Zm-28.83-3.59h.09c2.55,0,4.85-1.26,6.57-2.95.34-.32.9-.32,1.24,0,1.71,1.69,4.01,2.95,6.56,2.95s4.85-1.26,6.57-2.95c.34-.34.88-.34,1.24,0,1.71,1.69,4.01,2.95,6.56,2.95h.09l3.39-12c.14-.47.11-.97-.11-1.4-.22-.43-.61-.75-1.08-.9l-2.3-.75v-8.3c0-1.98-1.62-3.59-3.59-3.59h-5.39v-3.59c0-.99-.81-1.8-1.8-1.8h-7.18c-.99,0-1.8.81-1.8,1.8v3.59h-5.39c-1.98,0-3.59,1.62-3.59,3.59v8.3l-2.32.75c-.47.14-.86.47-1.08.9-.22.43-.27.93-.11,1.4l3.41,12Zm5.48-23.35h17.96c.99,0,1.8.81,1.8,1.8v5.33l-9.66-3.18c-.74-.23-1.51-.23-2.25,0l-9.65,3.18v-5.33c0-.99.81-1.8,1.8-1.8Z"/>
    </g>
  </g>
</svg>