<?xml version="1.0" encoding="UTF-8"?>
<svg id="Layer_2" data-name="Layer 2" xmlns="http://www.w3.org/2000/svg" viewBox="0 0 72.11 72.11">
  <defs>
    <style>
      .cls-1 {
        fill: #fff;
      }

      .cls-1, .cls-2 {
        stroke-width: 0px;
      }

      .cls-2 {
        fill: #022a52;
      }
    </style>
  </defs>
  <g id="Layer_1-2" data-name="Layer 1">
    <g>
      <circle class="cls-1" cx="36.05" cy="36.05" r="36.05"/>
      <path class="cls-2" d="m37.86,23.86c1.99,0,3.61-1.63,3.61-3.61s-1.63-3.61-3.61-3.61-3.61,1.63-3.61,3.61,1.63,3.61,3.61,3.61Zm-6.68,6.14l-4.62,23.32c-.23,1.1.63,2.15,1.77,2.15h.14c.85,0,1.57-.58,1.77-1.41l2.93-13.04,3.79,3.61v9.03c0,.99.81,1.81,1.81,1.81s1.81-.81,1.81-1.81v-10.19c0-.99-.4-1.93-1.12-2.62l-2.67-2.55,1.08-5.42c1.93,2.24,4.73,3.85,7.88,4.35,1.08.16,2.06-.7,2.06-1.81,0-.89-.65-1.63-1.54-1.77-2.75-.45-5.02-2.08-6.23-4.21l-1.81-2.89c-1.01-1.61-3.04-2.26-4.79-1.52l-6.92,2.93c-1.34.58-2.2,1.88-2.2,3.34v4.28c0,.99.81,1.81,1.81,1.81s1.81-.81,1.81-1.81v-4.34l3.25-1.26Z"/>
    </g>
  </g>
</svg>